<?xml version="1.0" encoding="utf-8"?>
<!-- Generator: Adobe Illustrator 22.0.1, SVG Export Plug-In . SVG Version: 6.00 Build 0)  -->
<svg version="1.1" id="Capa_1" xmlns="http://www.w3.org/2000/svg" xmlns:xlink="http://www.w3.org/1999/xlink" x="0px" y="0px"
	 viewBox="0 0 612 792" style="enable-background:new 0 0 612 792;" xml:space="preserve">
<style type="text/css">
	.st0{fill:#F3BA65;}
	.st1{fill:#95B7C9;}
	.st2{fill:#BED050;}
	.st3{fill:#EB8BA0;}
	.st4{fill:#DCE1E0;}
	.st5{fill:#E4DF63;}
	.st6{fill:#F6CFDE;}
	.st7{fill:#D8DADE;}
	.st8{fill:#56ACDE;}
	.st9{fill:#E76114;}
	.st10{fill:#FCED2B;}
</style>
<g id="nuevaespana">
	<path class="st0" d="M138.7,239.3l0.5,1.3L137,242c0,0-1.2,0.4-1.1,1.8c0.1,1.4,0.4,2.5,0.4,2.5l2.1,0.4c0,0,0,1.1-0.6,1.4
		c-0.6,0.3-1.5,1-0.1,2.5c1.4,1.5,3.1,2.4,3.4,4.5c0.3,2.1,0.1,4.1,0.9,4.6s1.8,0.4,4.5,0.5c2.7,0.1,1.4,2,3,2.1
		c1.6,0.1,3.5,1.8,3.9,2.4c0.4,0.6,2.6,1.6,2.8,3.6c0.2,2-1.1,2.7-1.1,3.1c0,0.4,1.2,1.4,1.3,1.8c0.1,0.4,0.1,2.1,0.1,2.1
		s0.5,11.3,0.9,11.6c0.4,0.3,1.3,0,2.3,0.7c1,0.7,2.4,1.7,3.2,1.8c0.8,0.1,1.2-1,1.4,1.3c0.2,2.3,1.1,2.8,1.2,3.6
		c0.1,0.8,0.8,2.7,0.1,3.3s-1.2,1.1-2.1,0.9c-0.9-0.2-2.3-0.6-2.4,0c-0.1,0.6,1.3,1.9,1.4,2.6c0.1,0.7,0.4,1.3,1.6,1.6
		c1.2,0.3,1.5,1.5,3.2,1.7s2.8,0.6,2.8,0.6s0,2.4,0.7,2.8c0.7,0.4,2.2,0.2,2.2,1.7s0.1,6,0.1,6s5.2,6.7,5.9,7
		c0.7,0.3,2.1,0.3,2.3,1.1s0.4,2.9,1.3,2.9c0.9,0,1.6,0.2,1.6,0.2s0-1.3,0.8-1.9c0.8-0.6,0.5-1.4-0.5-1.8c-1-0.4-1.2-1.8-1.3-2.2
		c-0.1-0.4,0.1-0.6-1.4-1.2c-1.5-0.6-2,0.4-2.4-2.5c-0.4-2.9-1.9-4.7-1.6-5.7c0.3-1,1.2-1.7,1.2-2.6c0-0.9-0.2-3.3-0.2-3.3
		s-3,0.6-3.6-0.5c-0.6-1.1-1-4-1.8-5.3c-0.8-1.3-1-4.8-2.5-6.1c-1.5-1.3-1.8-1.6-1.7-3.2s0.2-2.8-0.6-3.6c-0.8-0.8-2.3-2.1-2.7-3.8
		c-0.4-1.7-0.3-7.9-0.3-7.9s1.5,0.1,2,0.6c0.5,0.5,2.5,0.7,2.9,0.9c0.4,0.2,1.3,0.7,1.7,1.5c0.4,0.8-0.8,0.4-0.6,1.8s1.2,3.4,1,5
		c-0.2,1.6,0.6,2.8,1.6,3.9c1,1.1,2.9,2.7,3.4,4.2c0.5,1.5-0.4,2.4,0.7,3.4c1.1,1,3.6,0.4,3.9,1.3c0.3,0.9-1.1,2.1-1.1,2.1
		s0.5,2.4,1.5,2.5c1,0.1,3.2,0.2,3.2,0.2s-2.2,1.6-0.8,2c1.4,0.4,3.8-0.2,3.8,1c0,1.2-2.5,2.5-2.5,3.3s-0.1,2.3-0.1,2.3
		s1.9,0.2,2.2,1c0.3,0.8,1.3,0.8,1.8,1c0.5,0.2,1.7,2.9,3.3,3.8c1.6,0.9,2.6,2,2.8,3.4c0.2,1.4,0.9,4.6,0.9,4.6s0.9,0.9,3.1,2.3
		c2.2,1.4,2,2.4,2.5,3.6c0.5,1.2,0.7,0.4,0.5,3.2c-0.2,2.9-0.3,3.2-1.6,4c-1.3,0.8-1.4,0.9-0.8,1.4c0.6,0.5,1.9,1,1.5,1.5
		c-0.4,0.5-2.1-0.3-2.1,0.5s0.2,2.2,0.8,2.9c0,0,7.2,6.9,8.4,8.3c1.2,1.4,0.9,3.2,3.6,3.8c2.7,0.6,4.4,0,5.8,0.8
		c1.3,0.8,2.8,2,3.5,3.2c0.7,1.2,1.6-0.2,3.6,1.2s2.9,2.8,4.7,3.3s2.2,0.1,3,1.2c0.8,1.2,3,0.5,3.9,1.3c0.9,0.8,1.1,1.4,4,1.8
		c2.9,0.3,5.9-0.3,7.2-1.4s2.8-1.2,3.8-1.1c0,0,4.6-0.5,5.9,1.3c1.3,1.8,2.8,2.2,3.3,3.3c0.5,1.2,1.2,2.3,2.3,3.3
		c1.2,1,0.2,3,1.2,3.7c1,0.7,1.3,3.3,3.7,3.7c2.3,0.3,4.5-0.3,6.5,1.3c2,1.7,3.2,2.5,5.2,2.2s5.7-3.5,6.8-1.7c1.2,1.8,0.5,4,1.2,5.2
		c0.7,1.2,2.8,1.8,3.2,4.2c0.3,2.3,1.5,4.3,2.2,6c0.7,1.7,0.7,5.2,2.3,6.2c1.7,1,0.5-2,1.7-2.2c1.2-0.2,3.8,3,5.8,5l1.3,2.2
		c0,0,5.3-6.5,5.4-6.9c0.2-0.4,0.1-0.9-1.1-1.1c-1.2-0.1-2.4-0.1-2.6-0.3c-0.2-0.2-2.3-3.4-2.1-3.9c0.2-0.5,0.4-2.1,0.9-2.5
		c0.5-0.4,0.9-1.8,0.6-2c-0.3-0.2-1.3-0.8-1.2-2c0.1-1.2-0.1-3.3,0.3-3.3c0.4,0,1,0.9,1.4,0.6c0.4-0.3,0.7-3.9,0.3-4.2
		c-0.4-0.3-0.7-1.2-0.3-3.1c0.4-1.8-1-2.2,0.2-3.9c1.2-1.7,1.2-1.2,1.2-2.3c0-1.1-0.8-1.7-0.5-2.3c0.3-0.7,1-1.4,0.8-1.7
		c-0.2-0.2-0.6-1-1.2-0.9c-0.6,0.1-1,1-4.1-0.1c-3.1-1.1-2.9-1.6-4.5-1.7c-1.6-0.2-6-0.6-9.3-0.7c-3.3-0.2-4.3-0.8-5.3-0.2
		c-1.1,0.6-1.1,1.2-1.9,1.5c-0.9,0.3-1.2,1-1.5,0.2c-0.3-0.8-1.6-3.2-0.2-3.9c1.3-0.7,2.1-1.7,2.2-2.2c0.1-0.6-0.6-11.3-0.3-11.4
		c0.3-0.1,1.2-0.7,1.8,0.2c0.6,0.9,1.3,3.1,1.8,2.9s0.6-6.1,0.6-6.1s0.9-2.2,0.3-2.2c-0.6,0-2,0.2-2-0.2c0-0.4,0.5-3.3,1.3-4
		c0.8-0.7,2.3-3.4,2.4-3.6c0.2-0.2,1.7-2.6,1.8-3.2c0.1-0.6,1.8-1.2-0.3-1.8c-2.1-0.6-3.2-0.9-4.7-1.1c-1.4-0.2-2.4-0.7-3.9,0.2
		c-1.5,0.9-1.3,2.1-3.5,2.6c-2.2,0.4-1.8-0.2-3.2,0.9c-1.4,1.1-0.9,2-0.7,3c0.3,1-0.5,1.7-1,2.6c-0.5,0.9-0.5,1.7-0.7,3.4
		c-0.2,1.8-0.1,1.9-1.7,3.5c-1.6,1.6-2.4,1.8-1.8,2.7c0.6,0.9,1.2,1.3,0.5,1.8s-1.6,1.8-2.8,1.4c-1.2-0.4-0.2-2.3-1.4-2.4
		c-1.2-0.1-2.3,0.9-3.8,1c-1.6,0.1-4.1-0.7-5.7,0.2c-1.6,0.9-2.3,1.3-3.6,0.4c-1.2-0.8-4.4-2.3-5.4-3.3c-1-0.9-1.8-1.8-2.6-4.4
		c-0.8-2.7-0.9-5.5-1.9-6.4c-0.9-0.9-1-3.5-1.2-5.4c-0.2-1.9-1.1-2.3-1.4-3.4c-0.4-1.1-0.4-2.9-0.2-3.6s0.6-3.6-0.1-4.9
		c-0.7-1.3-1.7-3.6-1.7-4.4c-0.1-0.8,0.2-5.8,1.3-5.6s0.7,0.7,0.9,1.8c0.3,1.1,1.3,1.3,1.5,0.6c0.2-0.8,0.6-2.3,1.1-3.2
		c0.5-0.8,0.7-1.5,0.3-3.3c-0.4-1.8-1.2-3.7-1.9-4.5c-0.8-0.8-1.1-0.8-0.7-1.8c0.4-0.9,3.2-7.9,4.5-8.4c1.3-0.6,1.7-0.8,3.4-1.1
		c1.7-0.2,2.8-0.8,3.5-1.4c0.7-0.7-0.4-3.2,0.9-3.5c1.4-0.3,3.1,0.6,4.7,0.2c1.6-0.4,2.9-1,3.9-1c1,0,2.2,1.4,3.6,1.2
		c1.4-0.2,2.1-0.7,3.3-0.3c1.2,0.4,2.2,1.7,3.3,1.9c1.2,0.2,3.8,0.2,4.4,0.2c0,0-2.9-3.9-4.1-4.8c-1.2-0.9-3.4-2.5-3.6-3.6
		c-0.2-1.2-0.4-2.5,0.4-3.3c0.8-0.8,1.4-1.4,1.4-3c0-1.6-0.4-4.5-0.4-4.7c0-0.2-0.2-3.1-0.3-3.8c0-0.7-0.6-1.7-0.8-2.2
		c-0.1-0.5-0.2-1.1-1-1.2c-0.8-0.1-1.6-0.3-2-0.5c-0.4-0.2-0.4-1.1-0.4-1.1l-0.6-2.6c0,0-0.2-0.7-1.6-1c-1.4-0.3-3-1.1-3.6-1.1
		c-0.7,0,1-0.2-1.8-0.4c-2.8-0.1-3.3,0.2-3.9-0.1c-0.6-0.4-2.4-1.3-3.7-2.5c-1.3-1.2-2.5-1.2-3.4-2.1c-0.9-0.9-1.4-0.2-1.8-1.8
		c0,0,0.6-4-0.3-4.6c-0.9-0.6-2.2-2.4-3-3.4c-0.7-1-0.5-1.2-1.9-1.2s-3.7-0.3-4.5,0.4c-0.8,0.7-1.2,1.2-2.5,1.1
		c-1.2-0.1-7.6,0.1-8.9-0.5c-1.3-0.6-4.1-1.8-5.4-2c-1.3-0.2-5.5-1.3-6.3-1.5c-0.8-0.2-1.8-0.4-3.9-0.3s-3,0.8-4,0.3
		c-1.1-0.4-0.8-1.1-2.5-1.3c-1.7-0.2-2,0.3-3.4-0.2c-1.4-0.6-1.4-0.9-2.6-1.2c-1.1-0.3-1.6,0.2-2.3,1.2c-0.7,1-2.3,3.1-3.1,3.9
		c-0.7,0.8-1.2,2.2-2,2.4c-0.8,0.2-4,0.1-4.3,0.2c-0.3,0.1-0.9,1.1-1.9,2c-0.9,0.9-1.7,2.1-2.2,1.4c-0.6-0.6-0.2-1.6-0.5-2.2
		c-0.3-0.6-0.7-1.2-1.4-0.4c-0.7,0.8-1.3,1.8-2.6,2.1c-1.3,0.2-2,0-3.9,0.4c-2,0.4-4.3,1.6-5.5,0s-2.3-4.3-2.6-6
		c-0.3-1.7-1.3-3.2-2-4.2c-0.6-1.1-1-2.5-1.2-3c-0.2-0.5,0.1-4.1-1.3-4.7c-1.4-0.7-0.8-2.7-3.7-2.4c-2.9,0.3-5.4,0.6-6.4,1.7
		c-1,1.2-2,1.7-3.2,2.8c-1.2,1.1-1.6,2.6-2.1,3.5c-0.4,0.9-1.4,1.9-2.1,3C140.2,237.6,138.7,239.3,138.7,239.3z"/>
	<path class="st0" d="M321.2,306.3c-0.8-0.4-1,0.4-1.2-0.4c-0.2-0.8,0.3-4.4-0.2-6.6c-0.6-2.2-1.2-3.2-2-4.9
		c-0.8-1.8-0.6-2.1-1.3-2.9c-0.8-0.8-0.5,0.9-1.4-2.5c-0.9-3.4,0.4-1.2-1.5-4.2c-1.9-3.1-2.7-1.3-2-4.3c0.7-3,2.4-3.8,2.1-4.8
		c-0.3-1-3.5,0.2-4.7-1.5c-0.3-0.5,0.3-1,0.1-1.2c-1,0.1-3.4,0.5-3.8,0.4c-0.5-0.1-2.9-1.3-6.1-1.2s-7.2,0.4-8.6,1s-2.8,1.7-3.6,2.4
		s-1.1,3.1-1.1,3.1s0.3,1.8-1.3,2.8c0.6,0.1,1.1,0.2,1.6,0.3c1.1,0.1,5.4,0.2,6,0.6c0.6,0.3,3.1,1.3,3.3,2.5
		c0.2,1.2,0.2,2.1,1.2,1.8c1.1-0.3,3.4-1.8,4.3-1.5c0.9,0.2,3.2,0.5,3.9,2.7c0.7,2.2,2.7,1,2.8,3.4c0.2,2.4-0.4,3.5-0.8,4.3
		c-0.3,0.8-0.7,1.8,0.5,2c1.2,0.2,1,0.8,0.9,2c-0.1,1.2,0.3,2.9,1.4,3.8c1.1,0.8,1.9,1,2.5,3c0.6,2,1.1,2.4,1.6,2.8
		c0.5,0.4,0.3,0,0.4,2.2c0.1,2.2-1.1,2.9,0.3,2.8c1.4-0.1,3.6-1.5,4.1-1.8s0-2.2,1-3.2S322.1,306.8,321.2,306.3z"/>
	<path class="st0" d="M309.7,328.9c0,0,1.7-0.6,2.8,0.1c1.1,0.7,2.2,1.8,3.7,1.5c1.5-0.3,1.2-1.4,2.5-1c1.2,0.4,2.3,0.3,3.6,1.4
		c1.2,1.1,3.2,2.1,4.6,2.8c1.4,0.7,1.7,0,1.8,1.4c0.1,1.4,0.8,1.5,2.6,2.5c1.8,1,3.5,1.1,4.3,1.2c0.8,0.1,2.3,0.4,0.3,1.8
		c-2.1,1.4-5,1.5-3.3,2.3c1.7,0.8,3.9,1.4,5.3,0.7c1.4-0.7,1.8-1,3.5-1s4.6,1.8,5.5,0.7c1-1.1-0.3-1.4,1.4-1.5
		c1.7-0.1,2.3,0.8,2.3-0.4c0-1.2,0.7-1-0.4-1.4c-1.1-0.4-1.7-1-2.2-1.2c-0.6-0.3-2.2-0.3-3-0.3c-0.8,0-1.5,1.4-1.9-0.4
		c-0.4-1.8-1.5-3.6-1.5-3.6s-0.1,1-2.1-0.3c-1.9-1.2-1.8-1-3.3-2.5c-1.5-1.5-3.9-4.1-3.9-4.1s-3.6-2.2-3-0.8
		c0.6,1.4,3.2,2.8,3.5,3.9c0.3,1.1,2.1,1.5,1.2,2.1c-0.8,0.6-1.9,0.3-1.9,0.3s-2.1-0.7-3-1.9c-1-1.2-0.4-1.1-2.8-2.2
		c-2.3-1.1-3.2-0.8-3.6-2.1c-0.4-1.2,2.2-1.4-1.7-1.5c-3.9-0.1-4,0.1-4.7-0.6s-3.3-1.2-3.3-1.2s-4.6,1.1-5,1.2
		c-0.4,0.1-5.1,3-5.7,3.5c-0.6,0.4-1.5,0.1-1.8,1.1c-0.3,1-2.3,1.4-2.3,1.4s-2.8,1.1-0.7,1.5c2.1,0.4,3.6,1.4,4.6,1
		c1-0.4,1.1-1.5,2.1-2.2s2.1-0.7,2.6-0.7C307.1,330.3,308.6,330,309.7,328.9z"/>
	<path class="st0" d="M308,332.9c0,0,1.8-0.4,2.5,0.3s2.3,1.1,1.2,1.4c-1.1,0.3-2.9,0.8-2.9,0.8s-1,0.6-1.5,0.4
		c-0.6-0.1-1.4-0.1-1.1-0.6c0.3-0.4,0.8-1.2,0.8-1.2l0.3-1L308,332.9z"/>
	<path class="st0" d="M385.6,352.5c0.2-0.2,2.2-1.3,3.3-1.3c1.1,0,1.5,0.8,2.5,0.8c1.1,0,1.7,0.2,1.5,0.8c-0.2,0.5,1.5,1.2-0.7,1.3
		c-2.1,0.1-3.9,0-4.8,0.3c-0.8,0.3-1.7,0.5-2.1,0.5s-1.4-0.1-1-0.8c0.4-0.8,0.6-0.8,0.8-1C385.2,352.8,385.6,352.5,385.6,352.5z"/>
	<path class="st0" d="M361.9,343.3c0,0,1.6-0.3,2,0c0.4,0.3,0.4,1.1,2.4,1.2c2,0.2,2.9,0.8,3.7,1.1c0.8,0.3,1.7,0.9,2.3,1.7
		c0.6,0.8,0.8,0.7,2.1,1c1.4,0.3,2.8,2.4,2.9,2.8c0.2,0.4,0.1,1.2,0,1.8c-0.1,0.5,0.5,1.7-1.1,1.5c-1.6-0.2-2-0.6-2.9-0.8
		c-0.9-0.2-2.3-1.1-2.8,0c-0.5,1.1-0.5,1.5-0.9,1.5c-0.5,0.1-2.3-0.2-3.1-0.2c-0.8,0-0.8,0.4-1.6,0.7c-0.8,0.3-1,0.7-1.7,0.8
		c-0.7,0.1-1.8,0-1.8,0s1.9-2.4,1.8-3.5c-0.1-1.1-0.3-4.4-0.7-5.1c-0.4-0.8-1.3-3.5-1-4C361.9,343.3,361.9,343.3,361.9,343.3z"/>
</g>
<path id="nuevagranada" class="st1" d="M383.6,429.7c0,0-3.2-1.3-9.6-1.8c-6.3-0.5-6.3-2.3-10.2-3.7c-3.9-1.5-4.7-4.4-4.9-7.5
	c-0.2-3.1-1.1-7.3,0-10.2c1.1-2.9,1.1-2.9,2.1-5.3c1-2.4,1-3.6,0.5-3.4c-0.5,0.2-3.6-0.2-5.3-0.2c-1.8,0-1.6-0.1-4.2,1.2
	c-2.6,1.3-3.6,5-5.4,6.4c-1.8,1.5-5,4.9-5,6s0.1,3-0.3,3.8c-0.3,0.8-2.4,0.5-3.7-2.1c-1.3-2.6-2.8-1.9-5.2-3.4
	c-2.4-1.5-2.9-1.6-4.4-2.3c-1.5-0.6-3.1,1.9-6.6,2.6s-4.5-1.8-6.3-2.6c-1.5-0.7-4.1-3.7-4.8-4.6c0,0.1,0,0.2-0.1,0.2
	c-0.2,0.4-5.4,6.9-5.4,6.9s2,1.2,3.3,1.5c1.3,0.3,1,2.3,2.4,2.8c1.5,0.5,2.6,0.6,3.6,1.3c1,0.6,3.1,4.1,6.3,6.2
	c3.2,2.1,3.1-0.6,4.2-2.9c1.1-2.3,0.5-3.1,1.6-4.7c1.1-1.6,4.9,0,6.8,0.6c1.9,0.6,2.4,2.8,2.3,3.9c-0.2,1.1-0.5,4.5,0.2,7.6
	c0.6,3.1-2.8,21.4-3.1,21.9c-0.3,0.5-5.3,4.5-7.3,6.8c-1.9,2.3-1.5,2.8-2.3,6c-0.8,3.2-3.1,4.4-3.6,8.4c-0.5,4.1,0.2,5,1,5.8
	c0.8,0.8,4.4,0.2,5,1.1c0.6,1-4.9,1.8-1.3,5c3.6,3.2,8.1-0.8,9.4-2.4s4.2-2.9,8.4-3.1c4.2-0.2,7.3-0.6,10.2-2.3
	c2.9-1.6,2.9-4.2,5.5-5.8c2.6-1.6,2.1-0.2,3.4,0.3s4.2,4.5,6.6,6c2.4,1.5,1.6,4.5,3.1,5.7c1.5,1.1,4.4,1.6,4.9,1.5
	c0.5-0.2,1-6.2,1-6.8c0-0.6-1.1-8.8-1.5-10.4c-0.3-1.6-0.5-4.7-0.6-5.3c-0.2-0.6,3.4-1,5.5-3.2c2.1-2.3,2.8-5.8,3.2-9.4
	c0.5-3.6,0.2-7,0.3-10.4C383.6,432.1,383.6,429.7,383.6,429.7z"/>
<path id="venezuela" class="st2" d="M420.8,406.1c-3.8-4.1-4.9-1.2-7.3-4.1c-2.3-2.9-6.4-2.3-13.1-2c-6.7,0.3-10.7-0.6-11.9-0.6
	c-1.2,0-1.5-3.2-1.7-5.5c-0.3-2.3-4.1,1.2-4.4,2c-0.3,0.9-2.3,0-3.8-1.5c-1.5-1.5-2.6,0.9-2.9,2.3c-0.3,1.5-2,2.3-4.4,4.1
	c-2.3,1.7-1.5,3.5-1.7,7c-0.3,3.5-2.3,4.6-4.1,2.6c-1.7-2-0.3-6.4-0.6-9c-0.3-2.6,1.2-3.2,3.2-5.8c2-2.6,2.3-1.5,2-3.5
	c-0.3-2-2.9-0.6-5.5,1.2c-2.6,1.7-3.3,4.5-3.3,4.5c0.5-0.2,0.5,1-0.5,3.4c-1,2.4-1,2.4-2.1,5.3c-1.1,2.9-0.2,7.1,0,10.2
	c0.2,3.1,1,6,4.9,7.5c3.9,1.5,3.9,3.2,10.2,3.7c6.3,0.5,9.6,1.8,9.6,1.8s0,2.4-0.2,5.8c-0.2,3.4,0.2,6.8-0.3,10.4
	c-0.4,2.7-0.8,5.4-1.9,7.5c1.1,1.2,2.2,2.5,2.5,3.1c0.6,1.2,9.6,1.2,14.2,0.6c4.6-0.6,2.6-5.2,2.3-8.4c-0.3-3.2,1.2-4.1,5.8-7
	c4.6-2.9,8.1-1.5,7.8-6.4c-0.3-4.9,4.1-11.9,3.5-14.8c-0.6-2.9,4.6-4.4,6.4-7.5C425.5,409.8,424.6,410.1,420.8,406.1z"/>
<path id="peru" class="st3" d="M359.6,510.6c-1.5-5.6-6.7-7.6-5.6-11.1c1.2-3.5,2.3-11.4,5-11.4c2.6,0,9.4-2.1,10.8-2.3
	c1.3-0.3,2.6-0.5,3.5-4.9c-1-0.2-2.1-0.7-2.9-1.2c-1.5-1.1-0.6-4.2-3.1-5.7c-2.4-1.5-5.3-5.5-6.6-6s-0.8-1.9-3.4-0.3
	c-2.6,1.6-2.6,4.2-5.5,5.8c-2.9,1.6-6,2.1-10.2,2.3c-4.2,0.2-7.1,1.5-8.4,3.1s-5.8,5.7-9.4,2.4c-0.7-0.6-1.1-1.2-1.2-1.7l0,0
	c0,0-3.8-1.5-5,0.9c-1.2,2.3-0.6,1.8-0.9,6.2c-0.3,4.4,2.3,12.3,3.8,14.1s2.6,4.1,7,9.7s7,10.3,7.9,16.1c0.9,5.9-2.6,5.9,3.5,10
	c6.2,4.1,9.4,10.8,15,14.4c5.6,3.5,7.9,10.8,12,10c4.1-0.9,6.2-2.6,7-5.6c0.9-2.9,2.1-10.3,2.1-13.5c0-3.2,1.8-24.3,1.8-24.3
	S361.1,516.2,359.6,510.6z"/>
<path id="no_1_" class="st4" d="M345.2,686.5c0.1-0.3,0.4-0.5,1.1-0.9c2.6-1.3,2.8-2.8,3.6-3.2c0.9-0.4,4.1-4.7,4.3-6.4
	s1.9,1.9,1.9-3.2c0-5.1-0.9-6.6-0.4-9.8c0.4-3.2,2.6-7.9,3.6-9.2c1.1-1.3,4.9-4.9,4.5-9.6c-0.4-4.7-0.6-6,1.1-10.9
	c1.7-4.9,1.1-4.1,1.9-10.3s-2.4-8.3-1.5-13.5s-2.1-4.7-2.4-7.1c0,0,0.4,4.5-1.7,6.2c-2.1,1.7-1.1,6.8-1.7,8.1
	c-0.6,1.3-1.7,5.3-2.1,9.4c-0.4,4.1-3.8,17.5-3.8,17.5l-4.3,11.8c0,0-3.2,11.8-3,14.8c0.2,3,0.2,6.8-0.2,8.3
	c-0.4,1.5-4.3,7.1-3.6,7.7C342.8,686.7,344.1,686.6,345.2,686.5z"/>
<path id="portuguesas" class="st5" d="M544,493.1c-3.2-1.5-5.2-3.9-7.8-5.6c-2.6-1.7-4.1-2.4-3-4.7c1.1-2.4-2.8-1.3-4.5-1.9
	c-1.7-0.6-7.3-0.6-9.9-0.6c-2.6,0-9.3-1.3-12.5-2.2c-3.2-0.9-1.5-0.2-3.9-0.9c-2.4-0.6,0.2-1.7,0.6-3.4c0.4-1.7-2.4-3.2-3.9-4.1
	c-1.5-0.9-5.2-0.6-10.8-3c-5.6-2.4-0.9,0-3.4-0.6c-2.6-0.6-2.8,2.2-4.5,4.3s-1.3,3.4-3.2,4.3c-1.9,0.9-0.9,0-3.4-0.6
	c-2.6-0.6-0.6-0.9,1.5-3c2.2-2.2,2.8-0.9,3.2-2.2c0.4-1.3,1.1-2.2,1.1-2.8c0-0.6,0-1.1-3-2.4s-3.2,1.1-6,1.9c-2.8,0.9,0.4-3-0.9-4.5
	c-1.3-1.5,3-4.1,5-5.8c1.9-1.7-0.9-2.4-0.4-5c0.4-2.6-2.4-2.6-3.7-3.7c-1.3-1.1-0.6-2.8-0.4-4.3c0.2-1.5-2.2-3.4-6.5-7.1
	c-4.3-3.7-3.7-3.7-5.6-4.5c-1.9-0.9-6.7-1.9-11.4-3c-4.7-1.1-10.1-1.7-11.6-3.7c-1.5-1.9-3.7-3.4-3.9-6.2c-0.2-2.8-4.1-3.7-5.2-5
	c-0.4-0.4-1-0.7-1.6-1c-0.1,0.4-0.3,0.8-0.6,1.2c-1.7,3.2-7,4.6-6.4,7.5c0.6,2.9-3.8,9.9-3.5,14.8c0.3,4.9-3.2,3.5-7.8,6.4
	c-4.6,2.9-6.1,3.8-5.8,7c0.3,3.2,2.3,7.8-2.3,8.4c-4.6,0.6-13.6,0.6-14.2-0.6c-0.3-0.6-1.5-1.9-2.5-3.1c-0.4,0.7-0.8,1.3-1.3,1.9
	c-2.1,2.3-5.7,2.6-5.5,3.2c0.2,0.6,0.3,3.7,0.6,5.3c0.3,1.6,1.5,9.7,1.5,10.4c0,0.6-0.5,6.6-1,6.8c-0.2,0.1-1.1,0-2-0.2c0,0,0,0,0,0
	c-0.9,4.3-2.2,4.6-3.5,4.9c-1.5,0.3-8.2,2.3-10.8,2.3c-2.6,0-3.8,7.9-5,11.4c-1.2,3.5,4.1,5.6,5.6,11.1c1.5,5.6,17.3,6.7,17.3,6.7
	s13.9-0.8,17.6-2c3.6-1.2,5.6-2.8,11.6,0c0,0,6.5,4.3,7.7,5.4c1.3,1.1,3.8,2.8,3.4,4.7c-0.4,1.9,1.9,4.5,3.4,5.8
	c1.5,1.3,3,1.1,3.6,4.9c0.6,3.8,0.9,4.7,4.1,4.9c3.2,0.2,4.9-1.1,6,0.4c1.1,1.5-0.4,9.4-0.9,11.1c-0.4,1.7-4.5,7.5-4.3,12.4
	c0.2,4.9-0.6,10.9-1.1,13.5c-0.4,2.6-0.6,3.4,1.9,4.7s9.4,10.7,10.9,14.8c1.5,4.1,3.6,5.8,2.1,9c-1.5,3.2-3.6,4.9-6.2,5.6
	c-2.6,0.6-5.8,2.4-6.2,3c-0.4,0.6-5.6,7.3-6.6,10.9c-1.1,3.6,1.7,3.4,3.4,6c1.7,2.6,5.6,6,6.4,7.9c0.9,1.9,3,3.6,4.7,6.2
	c0.8,1.2,1.1,3.2,1.3,5.1c0.2-0.1,0.4-0.2,0.7-0.3c1.5-0.6,3.4-4.7,5.8-8.6c2.4-3.9,4.5-3.7,8.8-8.8c4.3-5.2,9.9-9.9,11-13.8
	c1.1-3.9,0-5.8,0-5.8s5-5.6,6.5-7.3c1.5-1.7,8.4-6.7,12.7-8.4s5.6-0.4,11.8-0.9c6.2-0.4,7.3-1.3,9-4.1c1.7-2.8,4.3-5.6,8-7.5
	c3.7-1.9,2.4-3.4,3.2-6.5c0.9-3,0.4-3.7,3.2-6c2.8-2.4,4.1-13.6,4.3-15.1c0.2-1.5,1.1-7.3,0.6-10.3c-0.4-3,4.7-7.8,4.7-9
	c0-1.3,4.7-7.3,8.8-12.5c4.1-5.2,2.8-5.2,4.5-8c1.7-2.8,5.8-9,5-10.8s2.6-5.8,3.2-10.8C552.6,492.2,547.2,494.6,544,493.1z"/>
<g id="plata">
	<path class="st6" d="M441,598c-1.5-4.1-8.3-13.5-10.9-14.8s-2.4-2.1-1.9-4.7c0.4-2.6,1.3-8.6,1.1-13.5c-0.2-4.9,3.8-10.7,4.3-12.4
		c0.4-1.7,1.9-9.6,0.9-11.1c-1.1-1.5-2.8-0.2-6-0.4c-3.2-0.2-3.4-1.1-4.1-4.9c-0.6-3.8-2.1-3.6-3.6-4.9c-1.5-1.3-3.8-3.8-3.4-5.8
		c0.4-1.9-2.1-3.6-3.4-4.7c-1.3-1.1-7.7-5.4-7.7-5.4c-6-2.8-8-1.2-11.6,0c-3.6,1.2-17.6,2-17.6,2s-1.8,21.1-1.8,24.3
		c0,3.2-1.2,10.6-2.1,13.5c-0.8,2.8-2.7,4.5-6.4,5.4c0,2.6,0.2,5.8,0.5,6.8c0.4,1.5,0.6,1.9,0.9,5.3c0.2,3.4-0.2,4.9-2.1,8.8
		c-1.9,3.8-1.3,12.6-1.7,13.3s-1.5,5.3-1.3,7.7c0.2,2.4,3.2,1.9,2.4,7.1s2.4,7.3,1.5,13.5s-0.2,5.3-1.9,10.3
		c-1.7,4.9-1.5,6.2-1.1,10.9c0.4,4.7-3.4,8.3-4.5,9.6c-1.1,1.3-3.2,6-3.6,9.2c-0.4,3.2,0.4,4.7,0.4,9.8c0,5.1-1.7,1.5-1.9,3.2
		s-3.4,6-4.3,6.4c-0.9,0.4-1.1,1.9-3.6,3.2c-2.6,1.3,0,1.9,0.6,2.6c0.6,0.6,1.1,1.7,0.9,3.6c-0.2,1.9,0.6,5.3,0.6,6
		c0,0.6-1.1,3.8-2.6,4.3c-1.5,0.4,0,0-1.3,1.9c-1.3,1.9,0.6,3.2,0.4,5.6c-0.2,2.4,0.2,1.5-0.4,3.2c-0.6,1.7-1.3,0.9-1.3,3.2
		c0,2.4-0.2,3.6-1.1,4.3c-0.9,0.6-2.1,0.6-3.4,2.4c-1.3,1.7,0.6,0.2,2.1,2.8c1.5,2.6-1.9,3.4-3.6,6.2s1.1,1.5,2.1,2.4
		c1.1,0.9,0.6,1.9,1.3,5.8c0.6,3.8,3.7,1.9,4.3,2.8c0.6,0.9,2.9,8.4,4.7,5c1.8-3.5,7.2-6,7.2-6s3.1,0.8,3.3-0.3
		c0.2-1.1,1.1-7.5,1.7-10.3c0.6-2.8,4.5-2.4,6-3.2c1.5-0.9,4.5-1.9,7.1-4.5c2.6-2.6-0.9-2.1-3.2-4.1c-2.4-1.9-2.6-6.8-2.6-6.8
		s1.3-3.4,4.1-4.5c2.8-1.1,4.5-2.1,5.8-4.1c1.3-1.9,0-3.6,0-4.3s6-4.7,6.2-6c0.2-1.3-3-2.4-5.1-4.3c-2.1-1.9,0.2-1.5,3.2-2.6
		s2.8,2.1,6.4,1.9c3.6-0.2,4.3-3,4.7-7.1c0.4-4.1,0.4-3.6,4.5-5.3c4.1-1.7,11.3-1.9,13.3-2.6c1.9-0.6,5.3-4.1,6.6-6.6
		c1.3-2.6-0.6-3.4-2.1-5.1c-1.5-1.7,0.2-1.9,1.7-3.4c1.5-1.5,2.8-2.4,3.8-2.6c1.1-0.2,3.4,1.7,5.1,2.8c1.7,1.1,12.6-3,12.6-3
		s0.4-6.6-1.3-9.2c-1.7-2.6-3.8-4.3-4.7-6.2c-0.9-1.9-4.7-5.3-6.4-7.9c-1.7-2.6-4.5-2.4-3.4-6c1.1-3.6,6.2-10.3,6.6-10.9
		c0.4-0.6,3.6-2.4,6.2-3c2.6-0.6,4.7-2.4,6.2-5.6C444.7,603.8,442.5,602,441,598z"/>
	<path class="st6" d="M343.1,688.3c0,0-0.2,4-0.4,4.9s-0.7,5.5-0.7,5.5s0.7,0.9,1.3,0.7c0.5-0.2,1.3,0,1.5-1.8
		c0.2-1.8,0.9-5.5,0.9-6.2c0-0.7-1.1-2.9-1.1-2.9L343.1,688.3z"/>
	<path class="st6" d="M351.1,748.5c0,0,1.4-3.4,3.2-1.8c1.8,1.6,1.1,1.4,2.7,3c1.6,1.6,2.7,2.7,4.3,3.4c1.6,0.7,4.1,1.6,4.3,2.5
		c0.2,0.9,1.8,3,0.7,2.5c-1.1-0.5-3.4-1.1-4.5-1.4c-1.1-0.2-1.8,0.5-4.1-0.5c-2.3-0.9-4.5-0.2-5.7-0.5c-1.1-0.2-3.6-0.9-4.8-0.7
		c-1.1,0.2-2.5,0.2-2.5,0.2s-1.8-1.8-0.2-2c1.6-0.2,3.4,0,4.1,0c0.7,0,3.4-0.2,3.4-0.2s-0.7-0.7-0.5-2
		C351.8,749.7,351.1,748.5,351.1,748.5z"/>
	<path class="st6" d="M355.6,757.2c0,0,2.8,0.3,3.1,0.5c0.3,0.3,0.8,1.1,0.3,1.4c-0.4,0.3-0.1,0.7-1.3,0.5s-1.5,0.2-1.9-0.4
		c-0.4-0.6-0.7-0.6-0.9-0.9C354.9,757.9,355.6,757.2,355.6,757.2z"/>
	<path class="st6" d="M368.8,754.1c0,0-0.3,1.1-0.2,2.2c0.1,1.1-1.2,1.6,0.1,1.1c1.3-0.5,0.9-0.8,1.8-1.2c0.9-0.4,1.4-0.3,1.7-0.5
		c0.3-0.3,1.2-0.3,0.5-0.7c-0.7-0.4-1.5-0.7-1.7-0.9c-0.3-0.2-0.7-0.9-1.3-0.6C369.1,753.9,368.8,754.1,368.8,754.1z"/>
	<path class="st6" d="M350,757.7c0,0,1.4-0.6,1.8-0.3c0.4,0.3,1.1,0.9,1.1,0.9s1.1,1.1,0.7,1.3c-0.4,0.2-0.5,0.6-0.9,0.3
		c-0.4-0.3-0.7-0.6-1.3-0.6c-0.6,0-0.7,0.1-1,0.3c-0.3,0.3-0.5,0.7-0.9,0.2c-0.4-0.5-0.7-0.7-0.3-0.9
		C349.4,758.7,350,757.7,350,757.7z"/>
	<path class="st6" d="M338.5,714c0,0,2.3,1.8,1.3,3.3s-1.8,3-1.8,3s0.5,1.7-0.8,2c-1.3,0.3-1.7,0.3-1.5-0.7c0.2-1-0.2-4.7-0.2-4.7
		s1.5-0.5,1.8-1.2C337.7,715.2,338.5,714,338.5,714z"/>
	<path class="st6" d="M389.9,739.4c0,0,0.4,1.1-0.9,1.9s-3.4,0.2-2.8,1.8s0.9,2.4,1.6,2s0.4-1.2,1.8-1.6s1.6-0.1,2.6-1.6
		s0.8-1.9,0.4-2S389.9,739.4,389.9,739.4z"/>
	<path class="st6" d="M395,739.9c0,0,0.2,1-0.6,1.9s-0.9,1.4-0.8,2s0.2,1.5,1,0.6s0.2-1.6,1.5-2.1s2-0.9,1.8-1.6s-0.9-1.2-0.9-1.2
		L395,739.9z"/>
</g>
<g id="no">
	<g>
		<path class="st7" d="M138.7,239.3c0,0,1.5-1.8,2.3-2.8c0.7-1.1,1.7-2.1,2.1-3c0.4-0.9,0.8-2.5,2.1-3.5c1.2-1.1,2.2-1.6,3.2-2.8
			c1-1.2,3.5-1.4,6.4-1.7c2.9-0.3,2.3,1.7,3.7,2.4c1.4,0.7,1.1,4.2,1.3,4.7c0.2,0.5,0.6,2,1.2,3c0.6,1.1,1.6,2.6,2,4.2
			c0.3,1.7,1.4,4.5,2.6,6s3.5,0.4,5.5,0c2-0.4,2.6-0.2,3.9-0.4c1.3-0.2,2-1.2,2.6-2.1c0.7-0.8,1.1-0.2,1.4,0.4
			c0.3,0.6-0.1,1.6,0.5,2.2c0.6,0.6,1.3-0.5,2.2-1.4c0.9-0.9,1.6-1.9,1.9-2c0.3-0.1,3.5,0,4.3-0.2c0.8-0.2,1.3-1.6,2-2.4
			c0.7-0.8,2.3-2.9,3.1-3.9c0.7-1,1.2-1.4,2.3-1.2c1.1,0.3,1.1,0.6,2.6,1.2c1.4,0.6,1.7,0,3.4,0.2c1.7,0.2,1.4,0.9,2.5,1.3
			c0.9,0.4,1.7-0.1,3.2-0.3c0.2-1.5,0.9-1.8,2.4-3.1c1.6-1.4,2.3-4.7,2.2-5.7c-0.1-1-1.3-2.4-2.6-3.8c-1.4-1.4-4.8-6.9-6.4-9.5
			c-1.6-2.6,0-3.8-0.6-5.9c-0.6-2.2-6.4-2.7-9.8-3.3c-3.4-0.6-8.1-2.9-8.2-3.2c-0.1-0.3,1.5-9.1,1.5-9.1s0.1-0.6,0-4.1
			c-0.1-3.5-2.3-4.9-2.9-8c-0.6-3.1,0.9-5.6,1.3-10.2c0.3-4.6-0.6-3.9-2.7-6.5c-2.2-2.6-4.9-6.7-5.4-10.4c-0.5-3.7,3.2-4.2,4.8-5.5
			c1.6-1.3,6.7-3,7.9-3.3c1.1-0.3,6.4-2.3,9.8-4.8c3.4-2.5,9-1.8,12.7-5.1c3.7-3.3,6.4-3.8,8.7-4.3c2.3-0.6,4-2.6,4.9-4.7
			c0.9-2.1-0.2-7.1-0.9-12c-0.7-4.9,2.1-5.8,3.7-8.1c1.6-2.3,9-3.8,12-5.1c3-1.4,18.2-1.9,21.4-2.2c3.2-0.2,5.7-5.3,6.5-6.4
			c0.8-1.1,6.3-5,6.3-5l0.1-3.3c0,0-0.3-0.9-2-1.5c-1.7-0.6-0.5-0.6-0.1-2.5c0.4-1.9-0.8-1.6-2-3.7c-1.2-2.1-2.6-1-4-1
			c-1.3,0-1.3,1.9-1.8,2.1c-0.4,0.2-0.4-0.4-1.7-0.6c-1.2-0.2-1.4,1-2,1.8c-0.6,0.8-0.4,1.7,0,2.1c0.4,0.4,1.8,0.1,3.9,1.1
			c2.1,0.9,1.8,0.2,2.3,0.3c0.4,0.2,0.4,0.3-0.2,0.9c-0.6,0.6-1.7,0.7-2.3,1.1c-0.7,0.4,0.2,1.2,0.4,1.4c0.3,0.2,2.7-0.6,2.7-0.6
			s-0.2,1.1-0.3,1.6c-0.2,0.5-0.8,0.9-2.2,0.9s-1.7,1.8-2.3,2.3c-0.7,0.6-0.8,3.8-0.8,4.9c0,1.1-1.3,0.6-1.5,0.6
			c-0.2-0.1-1.6-2.1-1.4-3.4c0.2-1.3-0.7-2.5-0.9-2.6c-0.2-0.2-2.6-0.4-3.3-0.3c-0.7,0.2,0.7,0.7,1.8,2.3c1.1,1.6-0.1,0.7-0.4,0.9
			c-0.4,0.2-0.7,0.1-1.3,0c-0.6-0.1-2.8-1.4-4.2-1.6c-1.3-0.2-2.1,0.1-2.3,0.2c-0.3,0.1-5.2-0.8-7-0.9c-1.8-0.1-4.6-2.1-4.7-3
			c-0.2-0.8-2.6-1.3-3.2-1.3s-2.8,1-3.5,1.7c-0.7,0.7,0.7,1.1,1.4,0.8c0.7-0.3,1.8-0.7,3-0.3c1.1,0.3-1.6,1-1.6,1s-2.2,3.1-1.8,4.4
			c0.4,1.3-0.2,3.1-1.3,3.3c-1.1,0.3-0.4,0.1-1.7-0.2c-1.3-0.2,0.3-1.9,0.4-2.7c0.1-0.8-1.1-1.7-1.6-2.3c-0.5-0.6-1.3-0.9-2.5-2
			c-1.2-1.1-1.1-0.1-1.7,0.6c-0.6,0.6-1.5,0.4-2.8,0.4c-1.3,0-0.7,0.7-1.6,1c-0.9,0.3-2.2,0.6-2.5,0.3c-0.3-0.2-2.5-0.7-3.9-0.9
			c-1.4-0.2-1-0.9-0.8-1.4c0.2-0.5,1.6-0.9,2.4-2c0.8-1.1-0.3-1.4-1.2-1.8c-0.9-0.4-1.4-0.3-2.6,0.2c-1.2,0.4-2,0.3-3.1,0.4
			c-1.1,0.1-0.8-0.2-0.9-1.4c-0.1-1.2-0.8-0.8-1.3-0.8s-2.8-0.1-3.3-0.9c-0.4-0.8-5.1-1.3-6.3-1.3c-1.2,0.1-1.2,1.4-1.5,1.8
			c-0.3,0.4-1.1,0.3-1.6-0.6c-0.5-0.8,0.3-1,0.6-1.9c0.3-0.9-0.4-0.8-1.1-0.3c-0.7,0.4-1.3,0.3-2.7,1c-1.4,0.7-0.2,1.7-0.4,2
			c-0.2,0.3-0.4,0.4-1.2,0.4c-0.8,0-0.2-2.1-0.2-2.1s0.6-2.1,0.8-2.7c0.2-0.6,0-1.1-0.8-1.8c-0.8-0.8-0.7,0.5-0.8,1.1
			c-0.2,0.6-1.1,1.3-1.4,1.4c-0.4,0.2-1.8,0-3.5,0.4c-1.7,0.4-1.1,2.5-1.8,2.5c-0.7,0.1-0.4-0.5-0.4-0.5s-0.3-0.3-2-0.2
			c-1.7,0.1-0.8,0.2-1.2,0.8c-0.3,0.6-0.9,0.7-2,0.6c-1.1-0.1-0.6-0.4-0.6-0.7c-0.1-0.3,1.8-1.3,2.8-1.8c1-0.5,1.3-1.3,0.6-1.7
			c-0.8-0.4-2.1,0.3-2.5,0.4c-0.4,0.1-2.2,2.4-2.9,3c-0.7,0.6-0.9,0.3-1.7,0.1c-0.7-0.2,0-0.7-1.3-1.4c-1.3-0.7-1.2,0.8-2.5,1.1
			c-1.3,0.3-1.7,1.8-2.7,2.3c-0.9,0.5-1.5-0.1-2.1-0.6c-0.6-0.5-2.8-1.1-3.9-1.8c-1.1-0.7-3.2-0.1-5.4-0.2c-2.1-0.1-2.7-1.6-3.7-2
			c-0.9-0.4-2-1.4-3.3-0.9c-1.3,0.5-2.4,2.1-3.6,2.3c-1.2,0.2-2.1-1.4-2.7-1.4c-0.6-0.1-4.9-1.8-5.6-1.8c-0.7,0-5.1,0.7-5.6,0.7
			c-0.5-0.1-1.1-1.7-1.2-3c-0.2-1.3,0.1-1.3-0.6-1.8c-0.7-0.6-1.3,0.3-2,0.4c-0.6,0.1-0.8-1.2-1.1-1.8c-0.3-0.6-0.9,0.1-1.6,0.4
			c-0.7,0.4-4.2,2.3-4.5,2.4c-0.3,0.1-2.2,0.4-3.5,0.4c-1.2,0-4.2,0.4-4.5,0.4c-0.3,0.1-0.4,1.7-0.4,1.7s-0.9,0.2-1.7,0.1
			c-0.7-0.1-3.2-0.7-4.8-0.7C98,79,93.9,81.7,93,82.9c-0.9,1.2-5.1,1.4-6.3,1.5c-1.2,0.1-6.4,0.4-7.7,0.5c-1.3,0.1-1,1.4-1.3,2.1
			s-1.4,0.6-2,0.7c-0.6,0.1-0.7,0.9-0.7,0.9l1.4,0.4c0,0,0.7,1.1,1.1,1.3c0.4,0.2,1.1,1.2,1.3,1.4c0.3,0.3,0.1,2.2,0.3,2.7
			s0.9,0.7,1.7,1c0.8,0.3,0.9,0.3,1.8,0.6c0.8,0.2-0.5,1.5-0.5,1.5s-2.1-0.2-3.1-0.4c-1-0.2-0.7-1.3-0.9-1.8c-0.2-0.4-1-0.7-1.7-0.8
			c-0.7-0.1-0.9,0.4-0.9,0.4s1.4,1.6,1.5,2.1c0.1,0.5,0.4,0.6-1.8,0.6c-2.3,0-2.6,1-3,1.1c-0.4,0.1-2.1-2-2.1-2s-0.8-0.1-2.5-0.2
			c-1.7-0.1-3.1,0.9-3.3,0.9c-0.2,0.1-4.6,0.9-4.6,0.9s-3.2-0.1-3.9,0.1s-0.4,0.9,0,1.2c0.4,0.3,1.3,1,1.2,1.5s-0.4-0.1-2,0.4
			c-1.5,0.5,0.3,1.2,0.3,1.2l0.4,2.2c0,0,4.1-0.4,5.1-0.3c1.1,0.1,1.5,0.1,1.7-0.2c0.2-0.3,0.9-0.6,1.5-0.4c0.6,0.2,1,0.6,1.6,0.6
			c0.6,0,1.6-1.2,3.3-1.9c1.7-0.7,1.1,0.2,1.5,0.3c0.4,0.1,0,0.9-0.3,1.6c-0.3,0.7-1.4,0.2-2,0.4c-0.6,0.2-0.8,0.9-1.4,2.2
			c-0.6,1.3-1.3,0.4-3.1,2.6c-1.8,2.1-2.6,0.4-3.2,0.6c-0.7,0.2-7.1,0.4-7.3,0.4c-0.2,0.1-3.9,0.7-4.5,1.2c-0.6,0.5-0.6,1.4-1.6,2.2
			s-3.7,1.6-4.2,1.7c-0.5,0.2-1.3,0.7-2.5,2.3c-1.1,1.6,0,1.1,0.8,1.7c0.8,0.6,0.7,0.4,0.7,1.6c0,1.2-1.8,0.3-3.3,0.5
			c-1.5,0.2-0.6,0.9-0.1,1.6c0.6,0.6,0.7,1.1,1.3,1.9c0.6,0.8,0.7,0.5,1.7,0.4c0.9-0.1,2.3-1.2,3.2-1.7c0.9-0.5,1.5-1.2,3.2-1.7
			c1.7-0.5,0.5,0.3,0.6,1.1c0.1,0.8-2.3,2.2-2.3,2.2s-1.4,0.6-2.6,2.1s-1.6,1.7-2,2.1c-0.4,0.4,0.1,0.4,1.2,0.5
			c1.1,0.1,0.8-0.5,2.1-1.3c1.3-0.8,1.2,0.1,2,1.1c0.8,0.9,0.6,1.8,2,3.2c1.4,1.4,0.6-2,0.6-2s0.8-1.1,2-1.2s1,0.6,1.2,0.6
			c0.2,0,0.8-0.2,1.9,0.2s0.5,0.6,0.8,1.4c0.3,0.8-2.4,1.7-4.9,3.6c-2.5,1.9-0.4,0.8-3.5,2.1c-3.1,1.3-2.8,3.3-4.2,4.1
			c-1.4,0.8-2.1,0.1-4.9,0.4c-2.8,0.3-2.6,1.8-4.1,2.2c-1.6,0.4-5-0.2-6.9,1.1c-2,1.3-1.1,1.3-3,2c-2,0.7-3.4,0.4-5.7,0.5
			c-2.3,0.1-1.8,0.3-4.2,2.1c-2.4,1.8-1.9,1.8-1.6,2.3c0.3,0.5,0.6,0.1,1.7-0.2c1.2-0.3,0.8-0.7,3.3-0.7c2.5-0.1,1.6-0.8,2-1.2
			c0.4-0.4,2.9-0.4,4.6-0.3c1.7,0.2,1.7,0,2.7-1.6c0.9-1.6,4.5-0.9,5.4-0.9c0.9,0,0.7-0.6,2.7-1.1c2-0.5-0.2,0.8,1.2,1.2
			c1.4,0.4,3.6-2.9,4.6-3.5c1-0.6,2.5-0.7,3.6-1.3c1.1-0.7,1.1-0.8,2.6-0.9c1.5-0.1,3.3-1.4,5.7-2.7c2.4-1.3,1.2-1.1,3.1-2.5
			c2-1.4,2.6-1.1,3.6-1.3c1.1-0.2,3.2-0.9,4.1-1.2c0.9-0.3,0.3-0.4,0.5-1.1c0.2-0.7,1.6-1.3,2.8-2c1.3-0.7,1.4-0.6,2-2
			c0.6-1.4,1.3-1.6,2.3-2.1c1.1-0.4,1.1-1.1,1.9-1.9c0.8-0.8,2-0.7,3.2-1.1c1.3-0.4,2-1.2,3.6-2.1c1.6-0.9,2.8-1.2,4.3-1.8
			c1.5-0.6,0.8-1,2.6-1.9c1.8-0.9,2.4-0.3,3.6,0.5c1.2,0.8,0,0-0.9,2.2c-0.9,2.2-1,0.8-2.3,1c-1.3,0.2-1.7-0.2-3.6,0.6
			c-1.9,0.8-3,2.3-4.1,3.6c-1.1,1.3-1.7,1.2-1.8,1.7c-0.1,0.5,0.2,0.4,1.1,0.6c0.9,0.2,1-0.7,2-0.9c1-0.3,1.4,0.3,3.6,0.1
			c2.2-0.2,1.6-2.6,1.7-2.7c0.2-0.1,0.7,0.5,2,0.4c1.2-0.1,2-1.1,2.7-2.3c0.7-1.2,1.2-1.2,4.3-2c3.1-0.8,1,0.6,2.8,0.8
			c1.8,0.2,1.1-0.3,1.7,0.3c0.7,0.6-0.8,0.9-0.7,2c0.1,1.1,0.6,0.1,1.6-0.1c1-0.2,1.2-0.1,4.4,0.5c3.2,0.6,4.3-0.1,5.8,0.3
			c1.4,0.4,1.1,0.6,1.9,0.3c0.8-0.3,2.5-0.2,3.9-0.1c1.4,0.1,0.1,1.1-0.4,1.8c-0.5,0.7,1.1,1.2,2.6,4.7c1.6,3.5,3,1,3.2,0.7
			c0.2-0.3,0.4-0.9,1.5-1.1c1.1-0.2,0.7,1.3,2.3,1.4c1.6,0.1,0.8-1.1,2-2.8c1.2-1.7,1.4-1.1,1.6-1.1c0.2,0,0.1,2.5,0.1,3.7
			c-0.1,1.3,1,1.9,1.4,2.8c0.4,0.9-0.2,2.6-0.4,3.1c-0.2,0.4,0.2,1.3,0.5,1.7c0.3,0.4,1.6,1.4,2,2.4c0.4,1-0.7,2.2-1.5,2.7
			c-0.8,0.6-0.2,0.9,1.1,0.9c1.3,0.1,1.1,0,1.7,0.6c0.7,0.6-0.5,1.4-1.3,2.2c-0.8,0.8-1.2,1.5-0.9,2.6c0.3,1.1,1.8-1.8,3.1-3
			c1.3-1.2,0.9-1.2,1.5-1.4c0.6-0.2,0.4,1.5,0.4,1.9c-0.1,0.4-1.5,1.4-1.5,3.2c0,1.8-0.3,1-0.7,1.1c-0.4,0.1-1.7-0.4-2.5,0.2
			c-0.8,0.6-0.3,2.5-0.3,2.7c0,0.3,0.6,0.6,1.3,0.8c0.8,0.3,0.9-0.1,1.5-1.3c0.6-1.2,2.6-1.3,2.7-1.2c0.2,0.1,0.1,1.2,0.3,2
			c0.2,0.8,0.8,1.5,0.3,1.9c-0.6,0.4-2-0.1-2.2,0c-0.3,0.1,0.7,2,0.8,3c0.1,0.9,0.1,1.2,0.3,1.4c0.2,0.3,0,0,1.3-0.8
			c1.3-0.8,2.5-1.4,2.7-1.6c0.2-0.1,0.3,0.3,0.4,1.6c0.2,1.2-0.6,2-2.1,2.8c-1.5,0.8-1.2,0.4-1.2,0.9c0.1,0.6-1.2,2.2-1.7,2.9
			c-0.6,0.7,1.1,0.9,2.3,1c1.2,0.1,1.5,0.7,3.6,1.8c2.1,1.1,1-0.6,1.7-1.1c0.7-0.6,0.8,1.6,1.1,2.5c0.2,0.9,0.5,1.1,1.5,1.2
			c1,0.1,0.7-0.4,1.4-1.2c0.7-0.8,1.3-0.4,1.6,0.3c0.3,0.8-0.6,1.6-1.1,2c-0.5,0.3-0.8,0.8-0.5,1.2c0.3,0.4,1.6-0.2,2.1-0.2
			c0.5,0,0.4,0.3,0.2,1.2c-0.2,0.9-1,0.6-1.5,1.2c-0.5,0.6,0.3,0.7,1.1,1.2c0.8,0.5,1.4,1.2,1.9,2.2c0.5,0.9-0.8,0.9-1.1,1.3
			c-0.3,0.3-0.3,2.2-0.3,3.6c0,1.4-0.8,3.5-0.8,3.5s-0.3-0.3-0.4-0.7s0.1-2.3,0.1-3.5c0-1.1-0.6-0.9-1.6-0.9c-0.9,0-1.2-0.3-1.7-0.8
			c-0.5-0.4-2.1-0.7-2.9-0.8c-0.8-0.1-1.5,0.7-2,1.5c-0.4,0.8,0.7,1.4,1.5,2.2s-0.7,3.2-0.7,3.4c0,0.2-0.1,3.5-0.1,4.3
			c0.1,0.9-1.1,4-1.3,4.4c-0.2,0.4-1.5,2.7-1.9,3.3c-0.4,0.6-0.1,2.7-0.3,3.7c-0.2,1-1.1,2.1-1.6,2.6c-0.6,0.5-1.1,1.8-1.3,2.1
			c-0.2,0.3-0.1,6.9,0.2,8c0.2,1.1-0.5,2.1-0.6,2.2c-0.1,0.2-1.1,2.3-1.6,2.6c-0.4,0.3-0.7,2.6-0.8,3.4c-0.1,0.8,0,5.3,0,6.4
			c0,1.1,0.6,2,1.1,3.5C134.1,239.4,138.7,239.3,138.7,239.3z"/>
		<path class="st7" d="M133.9,171.5c0,0,2.9-0.2,3.5,0.8c0.6,1,2.7,1.1,3.8,1.9c1.1,0.8,3.8,1.6,3.7,3.4c-0.2,1.8,2.2,3.7,2.1,4.5
			c-0.2,0.8,2.1,1.9-1.1,1.1c-3.2-0.8-3.8-1.8-4.5-2.6c-0.6-0.8,0.2-1-1.3-0.3c-1.4,0.6-1.1,3.8-2.2,0.2s-1.6-5-2.2-4.8
			c-0.6,0.2-1.8,0.8-1.9,0.2c-0.2-0.6,1.4-1.9,1.4-1.9s0.3-0.6-0.8-1C133.2,172.6,133.9,171.5,133.9,171.5z"/>
		<path class="st7" d="M124.9,160.1c0,0-3,1.4-2.2,2.1s2.2,2.9,2.7,2.4c0.5-0.5-0.5-0.8,0.2-1.8c0.6-1,0.6-0.3,1.3-1.3
			c0.6-1,0.5-2.1-0.5-1.9C125.4,159.8,124.9,160.1,124.9,160.1z"/>
		<path class="st7" d="M122.2,155.9c0,0,0.1,1.6-0.1,2.4c-0.1,0.8-0.3,1.5,0.3,1.4c0.5-0.1,1-0.1,1.8-0.8s1-1,1.8-1.2
			c0.8-0.2,1.7,0.1,1.2-0.6c-0.5-0.8,0.2-0.8-1-0.8c-1.2,0-3.1-0.7-3.1-0.7s0.3-1-0.5-0.5C121.9,155.6,122.2,155.9,122.2,155.9z"/>
		<path class="st7" d="M126.2,146.7c0,0,0.2,1.4,0,2.3s-0.8,1.2,0.1,1c1-0.2,0.8-1.2,1.6-1c0.8,0.2,0.4,1.3,1,0.3
			c0.6-1,0.8-0.9,0.1-1.4c-0.6-0.5-1.4-1.1-1.8-1.3C126.8,146.6,126.3,146.7,126.2,146.7z"/>
		<path class="st7" d="M123.5,138.6c0,0-1.4,0.8-1.6,2.3c-0.2,1.6,0.1,2.9-0.6,3.5c-0.7,0.6-0.7,1.1-0.5,1.6
			c0.3,0.5,0.7,1.6,1.6,0.1c0.9-1.5,1.2-0.8,1.1-2.7c-0.1-1.9-1-1.9,0.1-2.7c1.1-0.8,0.6-1,1-1.4c0.4-0.3-0.5-1.6-1-1.2
			C123.3,138.4,123.5,138.6,123.5,138.6z"/>
		<path class="st7" d="M127.4,135.1c0,0-1.2,0-0.9,1.8c0.3,1.8-0.2,3.2,0.3,3.4c0.5,0.2,1.5,0.2,1.7-1.2c0.2-1.4,0.1-0.8,0.2-1.8
			c0.1-0.9-0.2-2.3-0.2-2.3H127.4z"/>
		<path class="st7" d="M62.2,136.9c0.2,0,0.8,0.7,2.5,0.2c1.6-0.5,2.7,0.1,2.9,0.3c0.1,0.3,0.7,1.1,0.5,1.5
			c-0.2,0.4-0.4,0.6-1.8,0.6c-1.4-0.1-1.6,0.3-2.4,0.2c-0.8-0.1-0.8,0.1-1.3-0.8c-0.5-0.9-0.7-1.6-0.5-1.6
			C62.2,137.3,62.2,136.9,62.2,136.9z"/>
		<path class="st7" d="M57.7,139.1c0,0,3.1-1.2,3.3-0.1c0.3,1.2,0.4,1.4,0.3,2c-0.1,0.6-0.1,1.8-1.4,1.6c-1.2-0.2-1.4,0-1.8-0.3
			c-0.4-0.3-0.9-0.3-1-0.8c-0.1-0.6-0.2-1.4-0.1-1.6C57.2,139.5,57.7,139.1,57.7,139.1z"/>
		<path class="st7" d="M193.5,74c0.5,0.1,1.6,0.6,2.1,2.2s1.1,4,1.9,2.9s0.9-3.6,2.1-3.2s1.6,2.2,2.8,0.8s1.4-2.1,2.4-2.6
			s1-1.2,3.4-2.6s4-1.2,4.9-1.4s1.2,0.2,2.4-0.5s0.5,1.6,2.2-0.9s-1.8-2.6-2.2-2.6s-3,0.5-3.8,0.6s-3.1-0.9-3.5-0.8s-5.5-0.2-5.9,0
			s-0.6,0-0.5,1.1s0.8,3.4-1.1,3.1s-2.2,0.2-2.8,0.6s-0.2,1.6-1.4,1.9S193.5,74,193.5,74z"/>
		<path class="st7" d="M211,73.2c2.2-0.6,5.5-1.2,6.4-1.6s2.6-2,3-1.1s0.8,1.4,1.4,1.4s1.6-0.9,2.6-0.6s2.4-0.4,2.6,0.9
			s2.1,0.9,2,0.2s-0.4-2.4,0.9-1.4s3.1,3.4,3.1,3.4s1.8,0.9,1.9,0.1s-0.8-1.1-1-2s-2-1.9,0.1-1.6s5.1-0.2,5.2,0.8s0.2,2.2,0.8,3.6
			s-0.1-0.4,1.2,2.4s2.2,2.5,3.1,3.1s3.2,3,3.2,3s-2-0.2-2.5,0.4s0.6,0.8-0.9,1.5s-1.8,2.1-3.8,1.6s-2.4-0.8-3.5-1.9s-1.8-2.2-2.5-2
			s-1.8,0.6-2.8,1s-2.9-0.1-4.4,1s-1.4,1.9-2.5,2s-3.5,1.1-5.8,0.8s-1.4,0.2-3.4-1s-1.5-1.2-3.1-2s-2-0.5-2.2-1.1s-1.9-1-0.1-1.2
			s2-1.4,4.8-1.4s2.2,0,4.1,0s2.9,0,2.8-0.4s-1.4-1.2-2.1-1.9s-1.8-1.1-3.9-0.9s-2.2,1.1-4,1s-2.5-0.4-2.5-0.4s0.5-0.6,0.5-1.4
			s-1.6-1.5-1.6-1.5s-1,0.2-0.2-0.8S211,73.2,211,73.2z"/>
		<path class="st7" d="M247.1,71.1c0,0,1.2,0.8,2.1,0.2s1.5-0.2,1.5-1s-2.8-2,0.8-1.8s4.6,0.5,5.5,0.5s3.6-0.6,3,0.8
			s-1.8,1.6-1.1,2.1s2.6,0.5,2,1.2s-0.9,1.4-1.2,1.5s-3.4,1.2-3.4,1.8s0.6,1-0.1,0.9s-2.2-1.1-2.6-1.4s0.2-0.8-1.6-0.8
			s-2.4,0.2-2.9-0.5s-1.2-1.4-1.5-1.9S247.1,71.1,247.1,71.1z"/>
		<path class="st7" d="M252.4,84c0,0,1-1,1.9-1.4s1.4-1.4,2-0.6s0,1.5,0.9,2s0.6,0.4,1.5,0.6s1.9,1.6,1.9,1.6s-1,0.6-1.9,0.9
			s-1.9,0.6-1.9,0.6s-2.8-1-3.4-0.9s-1.4,0.8-2.2,0.6s-1.5-0.4-1.2-1.1s0.4-1.8,0.9-1.9S252.4,84,252.4,84z"/>
		<path class="st7" d="M262.9,69.4c0,0,1.8,2.9,1.8,3.5s0.2,1,1.2,1s1.6,0.2,1.9-0.1s-0.5-1.9,0.5-1.8s1.1,0.5,1.9,0.2
			s1.4-1.4,2.1-2S271.9,69,273,69s0.6,0.6,1.1,0s1.5-1,0.6-1.2s-2.5-1.1-2.9-1s-2.2,0.1-2.8,0.1s-2.9,0.1-2.9,0.1s-2,1.2-2.5,1.4
			s-1.2,0.4-1.2,0.4L262.9,69.4z"/>
		<path class="st7" d="M277.1,77.8c0,0,1.5,0,2.4-0.5s1.8,0.2,1.2-0.8s-0.6-1.5-1.5-1.6s-2.6-0.2-2.6-0.2l-1.6-1.4l1.4-2.2l4.4-0.9
			c0,0,2.4-0.8,2.9-0.6s3.4,1,1.5,2.8s-1.8,3.8-1.5,4.1s1.1,1.9,1.5,1.9s0.2,1.8,0.9-0.2s-0.2-2.2,0.2-3.2s0.2-3,0.8-3.8
			s1-1.5,2.1-1.5s3-0.4,3.6,0.4s0.9,1.2,1.4,2.2s-0.4,1.2,1.1,1.8s1.2,0.9,4,0.9s3.5-0.4,4.8-0.6s5.1-0.9,5.9,0.2s1.6,1.2,3.9,1.4
			s3-0.5,4.4,1.1s0.1,2.2,2,2.9s0.9-0.6,4.1,0.2s3.2,1.1,3.2,1.6s0.2,2.1,1.1,2.5s0-0.2,0.6,1.8s-0.1,1.9,0.6,2s2.2,0.6,3.1,1
			s2,1.5,3.8,1.6s1.4,1.1,3.9,1s1.1,0.6,4.2,2.5s4.8,1.1,5.8,1s2.4,0.4,1.8,1s-5.5,2.1-3.6,2.5s2.9,0.2,3.6,1.1s0.6,1.6,0,2
			s-2.5,0.5-3.2,0.8s-2.4,0.4-3.1-0.8s-0.1-2.9-1.2-3s-3.5-0.1-4.9-0.2s-4.8-1.2-5.1,0s-1.6,1.5,0.2,1.9s0.9,0,3.4,0.8
			s4.1,2.1,4.1,2.1s0.5,0.8,1.1,1.1s1.5,0.4,2.4,2.1s1.4,2.1,2.9,2.6s3.4,1.5,2,1.9s-2.5,0.8-1.5,1.6s1.6,1.5-0.4,1s-3.2-0.6-4-1.1
			s-3.2-1.9-3.8-2.1s-2.1-0.8-2.4-0.4s-1.6,0.9-0.1,1.5s0.5,2,2.5,2.1s6.5,1.1,6.5,1.1s2.6,3.6,0,4s-3.2-0.5-4.9-1s-4-1.1-5.8-1.5
			s-2-2.1-5.5-2.5s-2.2-1.2-4.8-3.1s-6.5-2.6-6.9-3.1s-0.5-2.2-2.4-1.5s-5.1,0-6,0.5s-0.9,2.5-1.9,0.6s-2.2-1.8-1.1-3.4
			s1.4-2.5,2.1-2.5s-1.2-0.5,1.9,0.4s5.2,0.4,6,0.6s-0.4,1.1,0.8,0.2s0.6-1.6,0.1-1.9s-3.5-0.1-2.4-1.2s0.9-1.1,2.2-1.5
			s2.4-0.1,2.8,0s0.8,0.6,2.2,0.6s1.4,1.1,2.5,0.9s0.4,0,1.4-1s2.2-1.4,2.6-1.6s-1.4-1.8-2-1.8s-2.1,0.1-3,0.6s-0.1,1.4-1.8,0.5
			s-2.4-2.5-2.4-2.5l-0.9-3.5c0,0-4.4-3.4-4.8-3.5s-2.5-0.2-2.9-0.2s-1.1-0.9-2.1,0.2s-1.4,0.9-1.4,0.9s-0.2-2.5-0.4-2.9
			s-0.8-1.4-1.1-1.4s-3.4-0.9-3.4-0.9l-3-1.4l-2.2-1l-1.2,1.2c0,0-0.4,0.8-1.6,0.4s-4.5-1-5-1s-4.2-0.2-5,0.1s-1.5,0.9-2.4,1
			s-2.4,0.2-3.1-0.1s-1.6-1.1-1.6-1.1l-2.1-1.5L277.1,77.8z"/>
		<path class="st7" d="M286.2,102.6l-0.5,4.1c0,0-0.5,1.8-1.2,2s-1.9,0.5-1.9,1.2s0.6,2.1,1.8,1.8s2.1-1,2.1-0.6s-0.4,1.6,0.4,1.8
			s0.6,0.1,1.4-0.1s1.5-0.8,2.6-1.8s1.1-1.6,1.9-1.5s0.6-1.1,2.2-1s1.6,0.4,2.5,1s0,1.1,1.2,1.4s1.2,0.6,1.9,0.4s0.9-0.2,1.5-0.9
			s2.1-0.6,1.6-1.4s-1.2-1.1-1.8-1.2s-1.5,0.1-1.9-0.1s-0.1-1.4-1.5-1.6s-1.6-0.4-2.8-0.4s-0.4,0.8-1.1,0s-0.2-0.9-1.2-1.8
			s-0.4-1-1.6-1s-2.5,0-2.5,0s0-1.5-1-1.5S286.2,102.6,286.2,102.6z"/>
		<path class="st7" d="M398.4,162.4c-0.6-0.6-0.4-1.2,0.5-2.6s-0.5-1.5-1-1.8s-1.9,0.2-2.9,0.2s-2.2-0.2-3-0.4s-0.8-0.6-1.2-0.8
			s-1.1,0.2-3,1.5s-2.8,1.2-3.2,1.2s-2.4-0.2-2.6-1.4s1-1.4,2.2-1.8s3.2-0.9,4.6-1.2s0.5-2.5,0.5-2.5s-2.9-0.4-4.1-0.4
			s-0.4-1-0.9-2.5s-0.8,2-1.2,2.4s-1.1-0.9-1.1-1.2s-0.2-0.9-1.5-0.5s-2.2,0.5-2.8-0.2s-3.5-2.8-4.8-3.2s-0.6-3.1-0.8-4.6
			s-0.4-1.2-1.8-1.5s-0.2-1.4-0.6-2.6s-1.6-1.5-2.9-1.8s-1-3.8-1-3.8c-0.7-1.5-0.8,0.5-1.3,0.8s-3.3-1.2-4.3-1.8
			c-1-0.7,0.7-1.2,1.5-1.8c0.8-0.7-1.3-1.8-2.5-2.7c-1.2-0.8-1.5-1.7-2.3-2.8c-0.8-1.2-1.3,0-2.3,0.7c-1,0.7-0.3,2.3,0.2,3.8
			c0.5,1.5-0.5,2.3-1.3,2.7c-0.8,0.3-2,1.5-2,1.5c0.6-0.1-0.7,7.7-2.6,9.7c-1.9,2-3.8,5.2-4.7,6.6c-0.9,1.4-3.7,7.9-4.9,9.2
			c-1.2,1.4-4.9,5.8-5.1,6.5c-0.2,0.6-3.3,5.6-4.8,6.7c0.8,0.4,1.9,0.8,3.2,0.8c3.5,0,3.6-1.9,4.9-3.2s4.5-2.1,6.1-2.8
			s5.9-2.4,8.6-2.6s9.2,0,13.9,0.1s3.6,1.4,4,1.4s6.9,0.2,8.4,0.4s10.5,0,11.5,0.1s1.8,0.9,4,1.6s3.1-0.2,3.5-0.4s2.1-1.2,2.6-1.8
			S399,163,398.4,162.4z"/>
	</g>
	<path class="st8" d="M185,98.8c0,0,0,1.8-1.5,2c-1.5,0.2-3.7,0.5-3.7,1.2s1.3,1.3,2.2,1.5s3.5-0.8,3.5-0.8l0.5,1.3
		c0,0,1.2-0.2,3.2-0.5s3.7-0.5,3.8-1.7c0.2-1.2-1-3,0.5-2.7c1.5,0.3,1.7,0.7,2.7,0.8s0.3,0.3,1.8-1.5s2.7-2.8,1.2-2.7
		c-1.5,0.2-2,1-2.8,1c-0.8,0-2-0.7-2-0.7s1.5-0.8,1.5-1.7s0.8-1.8-1.2-1.5s-1.7,1-3.3,1c-1.7,0-2.7,0.2-4,0.2
		c-1.3,0-2.2,0.2-2.8,0.8s-0.5,1-2.3,1.7c-1.8,0.7-3.8,0.7-2.7,1.3s1.3,1,2.2,0.8c0.8-0.2,2.5-0.3,2.5-0.3L185,98.8z"/>
	<path class="st8" d="M197.7,112.7c-0.3,0.8,0.2,2.5,1.2,3s1.5,0.8,0.7,1.3s-2.2,0.8-2.7,1.7c-0.5,0.8-0.2,1.5-2,1.5
		c-1.8,0-3.7-0.8-3.7-0.8s-1.2-1.5-1.3-0.3c-0.2,1.2-0.8,2.2,1.2,2.7s3,0.3,4.8,0.3c1.8,0,1.8,0.3,3.2,0s1-0.8,2.7-1.7
		c1.7-0.8,1.3-1.7,4.2-2.7c2.8-1,2.3-1,4-1.3c1.7-0.3,3.2-0.7,2.8-1.3c-0.3-0.7-1.8-1.8-0.8-1.8s0.8,0.5,2.2,0.7
		c1.3,0.2,1,0.5,2,0.3c1-0.2,1.7-1.8,1.7-1.8s-0.2-0.2-1-0.3c-0.8-0.2-2,0-2.5-0.2c-0.5-0.2-1.3-0.7-2.2-0.7s-2.3,0.2-4.3,1.2
		s-3,2.8-4.5,2.5c-1.5-0.3-2.2-1-3-1.2c-0.8-0.2-1.2-3.2-2.2-2.2S197.7,112.7,197.7,112.7z"/>
	<path class="st8" d="M206.7,130.5c0,0,2-0.2,3.2-0.8c1.2-0.7,0.7-2.3,2.7-2.3s2.5,0.3,4,0.2s2.2-0.8,2.8,0.2c0.7,1,1.3,1.7,1.3,1.7
		s-1,1.2-2.3,0.8c-1.3-0.3-2-0.8-2.7-0.5c-0.7,0.3-3.3,0.8-3.3,0.8l-1.5,0.3l-2.5,2.3l-1.7,0.7c0,0-1.2-0.5-1.2-1.3
		S206.7,130.5,206.7,130.5z"/>
</g>
<g id="inglesas">
	<g>
		<path class="st9" d="M351.3,133.3c-0.6,0.1-1.7-0.1-2.8-1.4c-1.2-1.3-3.1,0.8-4,1.8c-0.9,1-2.1,0-4.1-2.1c-2-2.1,0.7-0.6,2.5-1.9
			c1.8-1.2-2.8-4.8-3.6-6.2c-0.8-1.4-1.3-0.9-5-3c-3.7-2.1-3.1-0.8-5.5-0.9c-2.4-0.1-2.1-1.7-2.4-2.4c-0.4-0.6-4.1-1.6-4.1-1.6
			s-1.5,0.6-3.5,0.1c-2-0.5-3-0.1-4.2-0.1c-1.2,0-1.4-0.1-2.8,0.4c-1.4,0.5,0.6,2.7,1.3,3.5c0.6,0.8,0.3,1.1,0.1,1.8
			s-0.1,1.9,0.3,2.7c0.4,0.8,0.3,0.3,2,0.8c1.7,0.5,0.8,2-0.2,3s-3,1.9-4.1,2.9c-1.1,0.9,1.1,2.3,1.9,2.7c0.8,0.4,2.3,0.6,4.4,1.3
			c2.1,0.6,2.1,1.3,2.8,2.7c0.7,1.4-0.3,3.3-0.2,4.6c0.1,1.3,0.5,1.7,0.3,4.7c-0.2,3-4,3.3-4.8,4c-0.9,0.6-2.7,0.7-3.7,1.3
			c-1,0.6,0.1,2.2,1.7,3.2c1.6,0.9,1.4,0.8,1.3,2.2c-0.1,1.4-0.8,1.2-0.5,2.8c0.3,1.6,0.6,1.1,1.8,2.2c1.2,1.2,0.6,1,0.6,2
			c0.1,1-0.2,1.4-0.2,1.8s-1.5,1.9-2.3,2.1c-0.8,0.2-3-0.1-3.4-0.4c-0.4-0.3-1.4-1.2-1.6-3.5c-0.1-2.3-1.1-0.7-2.5-0.7
			c-1.4,0-4-0.7-4.5-1.7c-0.4-1,1.2-1.4,1.3-2.7c0.1-1.4-0.9-3.4-0.9-4.7c0-1.3,0.1-2.8,0.1-3.8c0-1,0.8-1.4-2.2-1.2
			c-3,0.1-3.5-0.3-4-0.3c-0.4,0-4,1.7-4,1.7s-3-3.5-4.2-4.5c-1.2-1.1-2.8,1.1-4.3,0.4c-1.5-0.6-1.8-2.2-2.8-4s-4.2-1.8-4.8-2.1
			c-0.6-0.3-2.6-1.5-4.9-1.5c-2.3,0-2.4,1.9-3.4,2.2c-0.9,0.2-0.5-2.2-0.5-2.2s-0.5-1.4,0.4-4.5c0.9-3.1-1.3-1-2-1.4
			c-0.7-0.4-3.9,0-4.1-0.1c-0.2-0.1-0.1-1.6-0.1-2.7c0-1.1,0.1-1.9-0.2-3.7c-0.3-1.8,0.3-1.7,0.6-2.8c0.4-1.2,0.1-2.8,1.8-3.7
			c1.7-0.9,2.1-1.4,2.9-1.9c0.8-0.6,1.9-3.3,2.2-3.5c0.3-0.1,4.2-2.3,4.3-2.8c0.1-0.5-1.8,0-3-0.4c-1.2-0.4-1.4-0.6-2.1-0.9
			c-0.7-0.3-2.7-0.3-3.4-0.4c-0.6-0.1-3.1-0.1-4.3-0.2c-1.2-0.1-1.4-0.6-1.8-1.2c-0.4-0.6-0.4-2.2-0.1-2.6c0.4-0.4,1.9,0.6,3,0.4
			c1.1-0.1,2.6,0,3.9,0.2c1.3,0.2,1.8,1.4,1.8,1.4s5.3,0.1,5.5,0.1c0.3,0.1,1.7-0.2,1.7-0.2s1.1-1.3,1.7-1.4c0.6-0.1,1.2,0.4,2,1
			c0.9,0.6,1.1-0.1,1.2-0.3c0.1-0.2,2-1.9,2.6-2.3c0.6-0.4-0.6-0.9-0.6-0.9s-1.7-1.3-2.6-1.4c-0.9-0.1-1.7-0.6-1.9-1
			c-0.3-0.4,0.2-0.9,0.7-1.2c0.5-0.4,1.8,0.4,2.2,0.6c0.4,0.2,2.1,0.4,3,0.3c0.9-0.1,0.9-0.3,1.9-0.5c1.1-0.2,0.9-1.6,0.9-1.6
			s-1.2-1.2-1.3-1.5c-0.1-0.3,1.9-0.1,1.9-0.1l0.7,0.9c0,0,1.7,0.3,3,0.1c1.4-0.2-0.1-0.9-0.4-1.5c-0.4-0.6-1.8-2-1.8-2l3.2,0.4
			c0,0,1.1,0.9,1.3,1.2c0.2,0.3,1.1,0.8,1.4,0.9s1.7-0.9,3.9-2c2.2-1.2,1.9-1.9,2.3-2.4c0.4-0.4-0.3-1.9-0.9-2.5
			c-0.6-0.6-1.6-1.6-2.7-2c-1.2-0.4,0.9-1.4,1.3-1.9c0.4-0.4,0.5-0.9,0.4-2.1c-0.1-1.2-1.7-0.1-1.7-0.1s-0.3-0.9-2.7-1.2
			s-3.7,0-4.1,0.1c-0.4,0.1-1.4,0.1-1.9,0.6c-0.5,0.5-1,3.2-1,3.2s0.1,0.9-0.1,1.5c-0.1,0.6-0.4,0.7-1.7,1.9
			c-1.4,1.2-0.4,1.4-0.6,2.2s0.2,1.2-0.6,2.1c-0.8,0.9-1.4-0.1-1.6-0.4c-0.2-0.3-2.6-2.4-3.1-3.1c-0.5-0.7-1.1-1.2-1.2-2.3
			c-0.1-1.2,0.9-1,1.4-1.4c0.5-0.4,0.1-1.2-0.1-1.5c-0.2-0.4-0.8-0.6-1.5-0.9c-0.7-0.3-1,0.6-1.4,1.3c-0.4,0.7-0.1,1.4-0.6,2.4
			c-0.5,1-0.9,0.2-1.5,0c-0.6-0.2-1.1-1.1-1.1-1.1s-5.5,3.9-6.3,5c-0.8,1.1-3.3,6.2-6.5,6.4c-3.2,0.2-18.4,0.8-21.4,2.2
			c-3,1.4-10.4,2.9-12,5.1c-1.6,2.3-4.3,3.2-3.7,8.1c0.7,4.9,1.8,9.9,0.9,12c-0.9,2.1-2.6,4.1-4.9,4.7c-2.3,0.6-5,1-8.7,4.3
			c-3.7,3.3-9.3,2.6-12.7,5.1c-3.4,2.5-8.7,4.5-9.8,4.8c-1.1,0.3-6.3,2.1-7.9,3.3c-1.6,1.3-5.3,1.8-4.8,5.5
			c0.5,3.7,3.2,7.8,5.4,10.4c2.2,2.6,3.1,1.9,2.7,6.5c-0.3,4.6-1.8,7.1-1.3,10.2c0.6,3.1,2.7,4.5,2.9,8c0,1.2,0.1,2,0.1,2.7l0.9-0.4
			c0,0,2-3,2.2-3.7c0.2-0.8,1.8-2.1,2.4-2.5c0.6-0.4,2.7-3.5,2.7-3.5s5.9,0.2,8.1,0.1c2.2-0.1,6.3,0.6,10.4,0.9
			c4.1,0.2,2.9,0.3,4.8-0.6c1.9-0.9,6.5,0.4,6.8,2c0.3,1.6,2.1,2.3,3.2,2.7c1.2,0.4,6.1,2.7,7.6,3.7c1.5,0.9,2.4,7.1,2.3,7.9
			c-0.1,0.9,0.3,5.5,0.3,5.8c0,0.3,2.2,0.4,3.5,0.4s1.5-2.6,1.9-5.3c0.4-2.7,1.6-5.2,2.8-6.6c1.2-1.4,2.7-3.2,4.3-6.1
			c1.7-2.9,5.3-3,8.9-4c3.5-1,4-2.2,6-4.2c1.9-2,4.9-3,5.8-3.5c0.9-0.6,6.6-3.3,9.5-7.6c2.9-4.3,6.4-4.6,8.4-4.6s3,4.2,4,6.4
			c1,2.2,4,3.7,6,4.5c1.9,0.9,3,0.4,5.3,1.3s7.4,0.9,10.5,1.1c3.1,0.1,2.5-0.2,4-0.5c1.4-0.3,2.5-2.2,3.7-2.9c1.2-0.6,3.1-0.9,4.6-1
			s1.6,0.5,3-0.1c1.4-0.6,4.9-6.2,5.1-6.8c0.2-0.6,4-5.1,5.1-6.5c1.2-1.4,4-7.9,4.9-9.2c0.9-1.4,2.8-4.5,4.7-6.6
			C350.6,141,351.9,133.1,351.3,133.3z"/>
		<path class="st9" d="M371.8,199.9c-0.3-0.1-0.5-0.2-0.8-0.3c-1.2-0.8-0.2-1.9-2.6-2.1s-5.6,0.8-6.3,1s-5.3,0.6-5.6,0.6
			s-1.7,3-4.7,4.1s-0.9,0.2-5.5,3.4s-5.9,4.7-6.9,5.4s-3.6,4-5.9,6.8s-3.6,4.4-5.4,5.3s-6.6,5.9-6.6,7.8s-0.4,4.8-2.4,6.9
			s-3.8,2.4-4.4,6.4s-1.1,6.7-2.4,8.6s-0.5,3.5-0.5,6.1s-1.5,4.6-1.9,4.9s-0.6,3.9-0.6,4.1s-0.2,4-0.2,4c0.2,0.3-0.4,0.7-0.1,1.2
			c1.2,1.8,4.3,0.5,4.7,1.5c0,0.1,0,0.1,0,0.2c0.2-0.1,0.4-0.3,0.4-0.4c0-0.8,0.1-4.8,2.4-5.2s4.7-0.8,5.7-1.1s2-0.3,1.4-1.3
			s-1.2-2.6-0.5-3.2s1.6,0.6,3.5-0.9s0.9-3.7,2.6-4.2s3.2-0.2,3.8-0.8s0.6-0.8,0.2-1.9s-0.3-2.3,0.4-2.4s2.2,0.2,2.4-0.4
			s0.9-2.8-0.1-2.5s-2.9,0.6-4.2,0.4s-0.8-2.2,0-2.4s2.1-0.1,3.1-0.1s1.1-1.8,0-2.2s-2.1-2.2-2.5-2.8s-1.7-0.2-1.2-1.2
			s2-2.1,1.4-2.7s-3-1.5-3.2-1.6s-2.3-1.5-1.3-2.1s0.6-0.3,1.8,0.1s1.1,2.1,1.8,0.5s-1.4-2.6-1.1-3.6s0.1-1.1,1.3-1.6s1.5-0.9,2,0.8
			s0.6,1.7,0.6,3.9s1.1,3.1,0.9,4.5s-0.4,2.9,0.9,2.4s2.5-0.6,2.4-2.8s1.8-2.1-0.2-4.4s-2.8-0.8-2.9-3.3s-1-4.3-0.1-3.8
			s0.9,0.8,1.9,2.2s1.6,3.2,2.6,3.3s2.2,1.8,2.2-0.5s-1.3-2.8-0.8-4.6s-0.8-3.9,0.7-4.9s3.6-3,6.2-3.1s2.4-0.2,3.2-0.8
			s2.2-1.1,3.1-0.4s1.8,0.8,2.7,0.5s0.2-1.8-0.4-1.9s-1.9,1-2.6-0.2s-0.6-3.9-0.9-4.3s-1.4,0-0.5-1.4s2.4-3,3.4-4.2
			s-0.6-2.4,0.8-3.1s0.3-1.2,2.3-0.8s2.1,1.4,2.8,1.3s1.2-0.6,2.2-1.8s1.2-1.3,0.9-1.9s-1.2-2.3-0.1-2.4s2.4,0.1,2.9,0.3
			s2.1,0.5,3.1-0.2C371.5,200.2,371.7,200.1,371.8,199.9z"/>
		<path class="st9" d="M395.6,175.4c0,0,1.7-1.9,2.3-3c0.6-1.1,1.6-3.8,2.6-4c1-0.2,1.8-1.8,1.9-0.1c0.1,1.7,0.7,2.8-0.4,3.6
			c-1.1,0.9-2,0-2,2.1s-0.4,3.5,0.6,3.1c1-0.4,1.6-1.8,2.5-1.7c0.9,0.1,1.3,0.1,1.8,1.3c0.5,1.2,0,1.5,2.1,1.8
			c2.1,0.3,0.7-0.1,3.3,0.6c2.7,0.7,2.8,0.5,3,1.6c0.2,1.1-1.7,2.3,1.1,2.3c2.8,0,4.2-0.6,3.9,0.3c-0.3,0.9-2.8,1.4-3.1,1.8
			c-0.3,0.4-1.1,1.2,0.3,1.4c1.4,0.2,2-0.8,2.5,0.3c0.5,1.1,1.1,1.4,1.2,2.7c0.1,1.3,0.9,3,0.2,3.7c-0.7,0.8,0,1.7-1.6,1
			c-1.6-0.7-3-0.3-3.2-1.5c-0.3-1.2-0.4-2.8-0.7-3.1c-0.3-0.4-0.1-2.8-1.2-1.5c-1.1,1.3-2,2.8-3,2.9c-1,0.1-3.1,1-2-1.1
			c1.1-2.1,1.7-3.1,1.1-3.1c-0.6-0.1-1.6-0.1-2.3,0.9c-0.7,1-1.5,2.9-2.4,1.2c-0.9-1.7-1.8-1.9-1.8-1.9s-0.4,1.1-3.6,0.8
			c-3.2-0.3-5.5-0.3-5.5-0.3s-2-0.8-0.3-2c1.7-1.2,1.9-1,2.3-1.8c0.4-0.8,0.2-1.9-0.2-1.9s-3.2,1.5-2.8,0.3c0.5-1.2,0.1-0.8,1.2-1.6
			c1.1-0.8,0.9-0.6,1.5-1.4c0.6-0.8,0.8-1.8,0.7-2.3C395.4,176.3,395.6,175.4,395.6,175.4z"/>
		<path class="st9" d="M327.1,303c0,0,5-0.7,4.4,0.3c-0.5,0.9,0,1.6-1.1,2c-1.1,0.4-1.7,1.2-2.6,0.8c-0.8-0.4-1.1-0.3-1.6-1.2
			c-0.5-0.9,0.3-1.7,0.3-1.7L327.1,303z"/>
		<path class="st9" d="M333.3,304.1c0,0,0.4,1.7,0.7,2.8c0.3,1.1,0.4,1.7,0.9,1.7c0.5,0,0.7-0.3,1.2-1.1c0.5-0.8,1.1-1.7,0.3-2.3
			c-0.8-0.5-0.5,0.1-1.3-0.8c-0.8-0.9-1.7-1.1-1.7-1.1V304.1z"/>
		<path class="st9" d="M329.6,312.6c0,0-0.3,1.5,0.8,2.3c1.1,0.8,2.4,1.7,2,2.2c-0.4,0.4-2.3,0.7-2.8,0.5c-0.5-0.1-1.2,0.3-1.6-0.8
			c-0.4-1.1-0.9-2.8-0.5-3.2c0.4-0.4,1.5-1.2,1.5-1.2L329.6,312.6z"/>
		<path class="st9" d="M332.3,318.9c0,0-0.6-0.1-0.8,0.7c-0.1,0.8-0.4,0.7,0.1,1.2s0.5,1.5,1,0.8c0.5-0.7-0.1-0.4,0.5-1.1
			c0.6-0.6,0.7-1,0.3-1.3c-0.4-0.3-1.1-0.4-1.1-0.4L332.3,318.9z"/>
		<path class="st9" d="M337.2,311.7c-0.1,0.6,0,1.6,0.7,2.2c0.6,0.7,0.9,1.2,1.1,1.6c0.1,0.4-0.1,0.9,0.6,0.5
			c0.8-0.4,1.3,0.2,0.7-1.3c-0.6-1.5,0.3-1.6-0.3-2.2c-0.5-0.6,0.1-0.5-1.1-0.7c-1.2-0.1-1.5-0.3-1.5-0.3L337.2,311.7z"/>
		<path class="st9" d="M341.1,316.4c-0.1,0.2-0.8,1-0.2,1.5c0.7,0.5,0.7,0.7,1.1,1.1c0.4,0.4,0.5,0.8,0.9,0.7
			c0.4-0.1,0.9-0.2,0.7-0.8c-0.2-0.6,0-0.9-0.4-1.1c-0.4-0.2-0.7-0.2-0.8-0.7c-0.1-0.5-0.4-0.7-0.4-0.7L341.1,316.4z"/>
		<path class="st9" d="M343.3,321.8c0,0,0,1.7,0.1,2.1c0.2,0.4,0.4,1.1,1.1,1.4c0.7,0.3,0.7,0.5,1.2,0.3c0.5-0.3,1.2-0.8,0.8-1.1
			c-0.4-0.3-0.2-0.2-0.9-0.8c-0.7-0.6-0.9-0.5-1.1-1.1c-0.1-0.7-0.4-0.8-0.5-0.9C343.8,321.7,343.3,321.8,343.3,321.8z"/>
		<path class="st9" d="M349.3,326.3c-0.3,0.2-1.1,0.4-0.8,1.5c0.3,1.1,0.6,1.5,0.9,1.7c0.3,0.2-0.7,1,0.3,0.9c0.9,0,1.3,0.4,1.4-0.5
			c0.1-0.9-0.1-0.4-0.1-1.6c0-1.1,0.8-0.7,0.1-1.4c-0.6-0.7-0.8-0.8-1.2-0.7S349.3,326.3,349.3,326.3z"/>
		<path class="st9" d="M331.2,353.8c0,0,1.6-1.4,2.9-1.8c1.3-0.3,2.1-0.3,2.8,0.2c0.7,0.6,0.3,0.7,1.6,1.4s2.9,1.4,2.6,2.1
			c-0.3,0.7,1.1,1.5-1.2,0.9s-2.7-0.9-4.2-0.8c-1.5,0.1-1.5,0.7-2.8-0.2s-0.5-0.8-1.8-0.8s-1.8,0-1.6-0.4S331.2,353.8,331.2,353.8z"
			/>
	</g>
	<path class="st8" d="M237.2,154c0,0,3.5-0.8,3.5,0.3c0,1.2-1.5,1.8-0.5,2.5c1,0.7,0.8,1.3,2.5,0.8c1.7-0.5,2.8-1.5,2.8-1.5
		s-0.2-2.2,0.7-3.2c0.8-1,1.8-3,2.8-2.5s2.5-0.2,1,1.3s-2.5,3-2.3,4.3c0.2,1.3,1,4.7,1.7,5.5c0.7,0.8,1.7,4.5,1.8,5
		c0.2,0.5,1.3,2.2,1.3,2.8s0,4.3-0.7,4.5c-0.7,0.2-2.7,0.3-2.8-0.2c-0.2-0.5-0.7-1.5-0.3-3.3c0.3-1.8-0.2-4.8-0.2-4.8
		s-0.5-1.2-1.2-1.2c-0.7,0-2.2-0.2-2.2-0.2s-1.3-3.8-1.8-4.2c-0.5-0.3-2.3-0.8-2.7-0.3c-0.3,0.5-1.3,2.5-1,3.2
		c0.3,0.7,0.7,2.2,1.5,2.8c0.8,0.7,1.7,1.5,2,2c0.3,0.5,1.2,3.8,1.2,3.8l-0.5,1.2c0,0-2.2-0.5-2-1.8c0.2-1.3,0.5-1.3-0.2-2.3
		c-0.7-1-1.7-2-1.7-2s-1.3,1.7-1.8,1.2s-0.8-0.5-1.2-1.3c-0.3-0.8-0.5-3.5-0.8-4.3c-0.3-0.8-0.8-1.2-0.8-1.2s-0.3-3-0.3-3.5
		s1.3-2.7,1.3-2.7L237.2,154z"/>
	<path class="st8" d="M257.8,175.3c0,0-2-0.3-1.3,1.3c0.7,1.7,1,3.5,1.5,3.8s0.8,1.5,1.2,0.3c0.3-1.2-0.5-3.2,0.2-3.7
		c0.7-0.5,0.5-1.3,0-1.7S257.8,175.3,257.8,175.3z"/>
</g>
<g id="francesas">
	<g>
		<path class="st10" d="M378.2,166c-1.5-0.1-8-0.4-8.4-0.4s0.6-1.2-4-1.4s-11.1-0.4-13.9-0.1s-7,2-8.6,2.6s-4.9,1.4-6.1,2.8
			s-1.4,3.2-4.9,3.2c-1.3,0-2.3-0.3-3.2-0.8l0,0c-0.1,0.1-0.2,0.1-0.3,0.2c-1.4,0.6-1.5-0.1-3,0.1s-3.5,0.4-4.6,1
			c-1.2,0.6-2.2,2.6-3.7,2.9c-1.4,0.3-0.9,0.6-4,0.5c-3.1-0.1-8.3-0.2-10.5-1.1s-3.3-0.4-5.3-1.3c-1.9-0.9-5-2.3-6-4.5
			c-1-2.2-2-6.4-4-6.4s-5.5,0.3-8.4,4.6c-2.9,4.3-8.6,7.1-9.5,7.6c-0.9,0.6-3.9,1.5-5.8,3.5c-1.9,2-2.4,3.2-6,4.2
			c-3.5,1-7.2,1.2-8.9,4c-1.7,2.9-3.1,4.7-4.3,6.1c-1.2,1.4-2.4,4-2.8,6.6c-0.4,2.7-0.6,5.3-1.9,5.3s-3.5-0.1-3.5-0.4
			c0-0.3-0.4-4.9-0.3-5.8c0.1-0.9-0.8-7-2.3-7.9c-1.5-0.9-6.5-3.2-7.6-3.7c-1.2-0.4-3-1.2-3.2-2.7c-0.3-1.6-4.9-2.9-6.8-2
			c-1.9,0.9-0.6,0.8-4.8,0.6c-4.1-0.2-8.2-0.9-10.4-0.9c-2.2,0.1-8.1-0.1-8.1-0.1s-2.2,3-2.7,3.5c-0.6,0.4-2.2,1.7-2.4,2.5
			c-0.2,0.8-2.2,3.7-2.2,3.7l-0.9,0.4c0,1.2-0.1,1.5-0.1,1.5s-1.6,8.8-1.5,9.1c0.1,0.3,4.8,2.6,8.2,3.2c3.4,0.6,9.3,1.1,9.8,3.3
			c0.6,2.2-1,3.3,0.6,5.9c1.6,2.6,5,8.1,6.4,9.5c1.4,1.4,2.5,2.7,2.6,3.8c0.1,1-0.6,4.3-2.2,5.7c-1.5,1.3-2.2,1.6-2.4,3.1
			c0,0,0,0,0,0c0.3,0,0.5-0.1,0.8-0.1c2.1-0.1,3.1,0.1,3.9,0.3c0.8,0.2,5,1.3,6.3,1.5c1.3,0.2,4.1,1.4,5.4,2
			c1.3,0.6,7.6,0.4,8.9,0.5c1.2,0.1,1.7-0.4,2.5-1.1c0.8-0.7,3.1-0.4,4.5-0.4s1.2,0.2,1.9,1.2c0.7,1,2,2.8,3,3.4
			c0.9,0.6,0.3,4.6,0.3,4.6c0.4,1.6,0.9,0.9,1.8,1.8c0.9,0.9,2.1,0.9,3.4,2.1c1.3,1.2,3.1,2.1,3.7,2.5c0.6,0.4,1.1,0,3.9,0.1
			c2.8,0.1,1.1,0.4,1.8,0.4c0.7,0,2.3,0.8,3.6,1.1c1.4,0.3,1.6,1,1.6,1l0.6,2.6c0,0,0,0.9,0.4,1.1c0.4,0.2,1.2,0.4,2,0.5
			c0.8,0.1,0.9,0.7,1,1.2c0.1,0.5,0.7,1.5,0.8,2.2c0,0.7,0.2,3.6,0.3,3.8c0,0.2,0.4,3.2,0.4,4.7c0,1.6-0.6,2.2-1.4,3
			c-0.8,0.8-0.6,2.1-0.4,3.3c0.2,1.2,2.4,2.8,3.6,3.6c1,0.7,3.1,3.5,3.8,4.4c0.8,0.2,1.8,0.7,2.3,2c1,2.2,1.1,2.1,1.4,1.6
			s2.1-1.6,2-2.1s-1.4-2.1-2.6-3.2s-0.8-2.6-0.9-2.9s-2.2,0-2.7-0.3s-0.9-0.9-0.8-1.7s1.4-0.2,1.9-0.2s1.9,0.1,6.3,0
			s3.9-3.4,3.9-3.4s0.3-2.3,1.1-3.1s2.2-1.8,3.6-2.4s5.4-0.9,8.6-1s5.6,1.1,6.1,1.2s3.8-0.4,3.8-0.4s0.2-3.8,0.2-4s0.1-3.8,0.6-4.1
			s1.9-2.3,1.9-4.9s-0.8-4.2,0.5-6.1s1.8-4.6,2.4-8.6s2.4-4.3,4.4-6.4s2.4-5.1,2.4-6.9s4.9-6.9,6.6-7.8s3.1-2.5,5.4-5.3
			s4.9-6.1,5.9-6.8s2.4-2.3,6.9-5.4s2.5-2.2,5.5-3.4s4.4-4.1,4.7-4.1s4.8-0.4,5.6-0.6s4-1.1,6.3-1s1.4,1.3,2.6,2.1s2.2,0.3,3-0.7
			s0.8-0.3,1.5,1.5s1.4,0.4,3.2,0.4s1.1-0.5,1.7,0s0.1,1.4-1.2,1.8s-1.5-0.1-3.6-0.2s-2.4,1.3-3.2,2.6s-2.1,2.1-2.7,3.8
			s0.7,0.9,2.4,0.9s1.7-0.1,4.3-1.5s2.2-1.1,4.1-2.3s6-3.3,8-3.9s-0.1-1.4-1-3.1s-0.9-0.4-4.1-0.1s-3.5-1.4-5.8-2.1s-3.8-2-4.2-3.4
			s-1.1-1.2-2.2-1.8s-0.5-0.9,1-1.8s0.8-1.4,0.6-2.4s-2.7-0.2-4.8-0.2s-0.9-0.8-1.1-1.8s1.5-0.8,2.9-0.4s1.4,0.7,2.9,0.4
			s1.6-2.8,1.5-4.5s-2-0.8-4.6-1.3s-3.6,0.2-4.9,1.1s-1.6,1.1-3.2,1.1s-2.4,0.8-3.9,1.4s-3.9,7.2-4.2,7.6s-3.1,1.7-4.1,1.5
			s-0.5-0.7-0.2-1.3s1.4-2.1,2.5-3.2s1.1-3.4,2.6-4.2s1.4-1.9,3-2.9s2.9-1.9,3.2-2.9s0.1-1.9,0.9-2.8s6.7-1.1,7.9-1.2
			s5.9-0.6,7.1-0.6s1.6,0.5,3.2,1.7s3.6,0.6,5.6,0.6s4.4-3.6,4.8-4.1s3.9-3.3,3.9-3.3c-2.2-0.8-3-1.5-4-1.6S379.8,166.1,378.2,166z"
			/>
		<path class="st10" d="M362.6,347.8c-0.4-0.7-1.2-3.2-1-3.9L361,344c0,0-3.4-0.3-4.4-0.4c-1-0.1-1.6-0.4-2.4-0.6
			c-0.8-0.2-2.1,0.2-2.5,0.4c-0.4,0.2,0.1,1.7,0.3,2.4c0.2,0.7,2,0.1,3.2,0.2c1.2,0.1,0.8,0.3,0.8,0.3s-0.2,2-0.1,2.7
			c0.2,0.7,0.9,0.4,2.2,2.6c1.3,2.1-3.3,1.1-4.3,0.9c-1-0.2-2.5-0.8-2.5-0.8s-2.4,0.2-2.9,0.3c-0.5,0.2-0.5,0.7,0.1,1.5
			c0.6,0.7,2.1,1.1,2.6,1.2c0.6,0.1,4.1,0.1,4.1,0.1s3.5,0,4,0.1c0.5,0.1,2,1.6,2,1.6s1.9-2.4,1.8-3.5
			C363.2,351.8,363,348.5,362.6,347.8z"/>
	</g>
	<path class="st8" d="M272.7,186.7c0,0,2.2-0.7,3.2-1.8c1-1.2,0.5-2.5,2.2-2.3c1.7,0.2,0.8,0.8,2-0.2c1.2-1,0.5-1.3,2-1.2
		c1.5,0.2,3.8-0.7,5.2,0.2c1.3,0.8,2.8,1.5,4,3c1.2,1.5,3.2,1.3,3.5,2.5c0.3,1.2-0.7,1.2,0,2.5c0.7,1.3,2.3,2.3,2.5,3
		c0.2,0.7-0.5,1.8,0.3,2.2c0.8,0.3,5,0.7,7.5,1.2s7.7-0.8,8.8,2c1.2,2.8,3.5,5.5,3,5.8s-1.7,1.5-2.5,1.7c-0.8,0.2-2.7,0-3.2-0.7
		s-2.5-2.8-2.5-2.8s-0.7,1.2-0.3,2.2c0.3,1,2,1.2,1.2,2.3c-0.8,1.2-1.8,0.8-1.5,2.8c0.3,2,2,4.3,0,3.7c-2-0.7-3.8-1.8-4.2-3.2
		c-0.3-1.3-1.7-2.5-1.7-2.5l-2.8,1c0,0-2,0-1.2-1.5c0.8-1.5,1.7-2.7,1-4.3c-0.7-1.7-2.5-3.3-2.5-3.3s-1.8,0.7-2.3,1.2
		s-2.5,1.7-3.2,1.8c-0.7,0.2-2.2-0.2-2.2,0.8s-0.5,3.7,0,4.8s0.3,1.8,1.3,3.2c1,1.3,1.2,1.8,1,2.8c-0.2,1-0.7,2.3-1.2,3
		s-2.3,2.8-2.3,2.8l-2.7,0.3c0,0-2-2.8-2-3.3s0.5-2.7,0-3.7s-1.5-2.8-1.2-4c0.3-1.2-0.2-0.7,1-3.5c1.2-2.8,0.5-3.5,0.7-4.3
		c0.2-0.8,1.3-2,2.7-2.5c1.3-0.5,0.2,1,2.8-0.5c2.7-1.5,2.8-1.7,4-1.7c1.2,0,1.8,0.2,1.7-0.5c-0.2-0.7-1.8-2-3.2-2.2
		c-1.3-0.2-1.2-0.2-3.7,0s-2.3,1-3.7,0.2c-1.3-0.8-0.8-1.2-2-1.2c-1.2,0-2.2-0.3-2.2-0.3l1-1.8c0,0-1.3-0.8-3,0
		c-1.7,0.8-2.2,1.8-3.3,1.8c-1.2,0-0.7,0-2.5,0c-1.8,0-3.8,0.8-4.8,0.8s-2.5,0.5-1.5-0.7c1-1.2,2-1.5,2.5-1.8s1.5-0.7,2.3-1.7
		C271.7,187.8,272.7,186.7,272.7,186.7z"/>
	<path class="st8" d="M280.3,174c-1,0.2-3.2,1-2.2,2.2c1,1.2,1.8,2.3,2.7,2.3c0.8,0,0.8,1.2,1.5-0.3c0.7-1.5,0.5-2.2,0.7-3.2
		c0.2-1,0.8-1.5,0-1.7C282.2,173.2,280.3,174,280.3,174z"/>
	<path class="st8" d="M304.7,216l1.3-1.2c0,0-0.7-1.5-1.3-1c-0.7,0.5-2.2,1.7-2.7,2.2s-1.5,0-0.8,2c0.7,2,1.5,2.8,2.3,2.8
		c0.8,0,3.2-0.7,5.3-0.7c2.2,0,4.2,0,5.5-0.2c1.3-0.2,2.3-2.2,4.7-3.2c2.3-1,3.3-1.3,3.2-2.7c-0.2-1.3-0.8-1.7,1-1.8
		c1.8-0.2,2.2,0,3.8-0.3c1.7-0.3,1.8-0.7,2.7-1.5c0.8-0.8,1.3-2.5,1-3.2c-0.3-0.7-2-2.3-2.3-1.5c-0.3,0.8,0.7,2-1.3,2
		s-1.8-0.7-3.3-0.7s-3.5,0.8-3.5,0.8s-3.2,0-3.8,0.3c-0.7,0.3-2.5,0.5-1.5,1.7s1.7,1.5,2.7,1.5s1.2,0,1.3,0.5
		c0.2,0.5,0.7,1.2-0.2,1.3c-0.8,0.2-1.7,0-3.2,0s-2.2-0.3-2.8,0c-0.7,0.3-1.3-0.5-2.2,0.7c-0.8,1.2-3.7,4-3.7,4l-1.8,0.3L304.7,216z
		"/>
</g>
</svg>
